<svg id="Group_1" data-name="Group 1" xmlns="http://www.w3.org/2000/svg" width="614.187" height="332.591" viewBox="0 0 614.187 332.591">
  <g id="Group_25" data-name="Group 25">
    <path id="Path_1" data-name="Path 1" d="M319.352,647.65S235.4,556.818,294.268,472.088c21.965-31.616,78.042-49.371,129.59-34.967,30.448,8.508,76.625,7.252,121.745-67.738,61.531-102.266,316.958-55.765,267.1,123.41-21,75.473,57.275,78.908,18.5,155.018Z" transform="translate(-248.374 -315.986)" fill="#ebf3fa"/>
    <g id="Group_2" data-name="Group 2" transform="translate(38.072 68.629)">
      <g id="Group_1-2" data-name="Group 1" transform="translate(0 32.689)">
        <path id="Path_2" data-name="Path 2" d="M817.2,813.972,634.34,974l-96.208-85.737c-18.007,16.588-45.817,42.191-73.794,67.883-19.119,17.559-34.6,31.746-47.145,43.227l-87.383-.106c24.232-21.582,121.8-111.272,187.532-171.887l20.1-18.533,97.255,86.67L777.444,770.59Z" transform="translate(-329.81 -770.59)" fill="#d5e5fb"/>
      </g>
      <path id="Path_3" data-name="Path 3" d="M2157.753,649.033l87.087,91.38,24.6-104.388Z" transform="translate(-1733.267 -636.024)" fill="#d5e5fb"/>
    </g>
    <g id="Group_16" data-name="Group 16" transform="translate(143.065 200.753)">
      <g id="Group_10" data-name="Group 10" transform="translate(16.065)">
        <g id="Group_8" data-name="Group 8">
          <path id="Path_4" data-name="Path 4" d="M869.051,1366.8a176.5,176.5,0,0,0-1.865-20.722c-1.338-8.091-2.542-12.747-2.556-12.8-.176-.712-2.722-3.591-8.381-3.5s-5.123,3.865-5.123,3.865h0a1.264,1.264,0,0,0,.04.335,189.1,189.1,0,0,1,5.025,45.342c0,.357-.042.975-.017,1.386,0,0,13.115.354,13.118,0C869.75,1378.487,869.527,1372.326,869.051,1366.8Z" transform="translate(-851.112 -1293.375)" fill="#b7d3f3"/>
          <path id="Path_5" data-name="Path 5" d="M875.539,1379.2c0,.354-.183.639-.4.639h-.005c-.218-.006-.392-.29-.394-.639H863.5c0,.354-.183.639-.4.639h-.005c-.222-.006-.4-.3-.4-.657a185.712,185.712,0,0,0-.933-20.086,164.3,164.3,0,0,0-4.3-25.111,1.3,1.3,0,0,1-.04-.336s-.537-3.775,5.122-3.865,8.206,2.791,8.382,3.5c.01.037.692,2.673,1.6,7.412.3,1.57.624,3.37.957,5.383a176.712,176.712,0,0,1,1.865,20.722C875.829,1372.326,876,1376.977,875.539,1379.2Z" transform="translate(-855.951 -1293.375)" fill="#d2e3fc"/>
          <path id="Path_6" data-name="Path 6" d="M876.578,1524.116h44.066s-1.026-4.344-26.546-3.7C876.038,1520.876,876.578,1524.116,876.578,1524.116Z" transform="translate(-870.663 -1437.652)" fill="#c5dcf8"/>
          <g id="Group_3" data-name="Group 3" transform="translate(2.328 87.137)">
            <path id="Path_7" data-name="Path 7" d="M861.139,1583.315c5.109-27.057,3.8-43.661,3.789-43.87-.013-.417.721-.795,1.116-.808s2.163-.123,2.367.234c.267.467,1.3,20.923-6.319,44.444Z" transform="translate(-861.139 -1538.613)" fill="#b7d3f3"/>
          </g>
          <g id="Group_4" data-name="Group 4" transform="translate(36.002 87.137)">
            <path id="Path_8" data-name="Path 8" d="M1013.615,1583.315c-5.109-27.057-3.8-43.661-3.789-43.87.013-.417-.721-.795-1.116-.808s-2.163-.123-2.367.234c-.267.467-1.3,20.923,6.318,44.444Z" transform="translate(-1006.145 -1538.613)" fill="#b7d3f3"/>
          </g>
          <g id="Group_5" data-name="Group 5" transform="translate(44.155 87.137)">
            <path id="Path_9" data-name="Path 9" d="M1048.727,1583.315c-5.109-27.057-3.8-43.661-3.789-43.87.013-.417-.721-.795-1.116-.808s-2.163-.123-2.368.234c-.267.467-1.3,20.923,6.319,44.444Z" transform="translate(-1041.256 -1538.613)" fill="#b7d3f3"/>
          </g>
          <g id="Group_6" data-name="Group 6" transform="translate(10.537 87.137)">
            <path id="Path_10" data-name="Path 10" d="M896.487,1583.315c5.109-27.057,3.8-43.661,3.789-43.87-.013-.417.721-.795,1.116-.808s2.163-.123,2.368.234c.267.467,1.3,20.923-6.319,44.444Z" transform="translate(-896.487 -1538.613)" fill="#b7d3f3"/>
          </g>
          <path id="Rectangle_2" data-name="Rectangle 2" d="M1.254,0H44.617a1.255,1.255,0,0,1,1.255,1.255v0a1.255,1.255,0,0,1-1.255,1.255H1.255A1.255,1.255,0,0,1,0,1.255v0A1.254,1.254,0,0,1,1.254,0Z" transform="translate(5.038 85.341)" fill="#b7d3f3"/>
          <g id="Group_7" data-name="Group 7" transform="translate(8.59)">
            <path id="Path_11" data-name="Path 11" d="M1051.418,1359.838l14.648-3.319.863,2.2s-16.162,10.061-17.677,9.568S1051.418,1359.838,1051.418,1359.838Z" transform="translate(-1011.549 -1313.617)" fill="#ffb27d"/>
            <path id="Path_12" data-name="Path 12" d="M1001.333,1617.387a1.41,1.41,0,0,0-.232,1.456.011.011,0,0,0,0,.007,8.923,8.923,0,0,0,2.734,3.137c.164.139.311.265.438.383.034.031.067.062.1.092l.076.072c1.2,1.158.749,1.424,2.908,3.775,2.461,2.679,4.156,2.727,4.638,2.483.408-.208-.421-1.629-1.339-3.226-.045-.077-.088-.155-.134-.233-.122-.212-.244-.428-.365-.641-1.076-1.922-.8-2.824-.545-5.684.207-2.324,3.457-12.986,3.457-12.986l-4.717-.85s-1.421,8.489-2.986,9.8c-.837.7-1.774.706-2.578,1.223-.057.036-.112.073-.167.111A6.272,6.272,0,0,0,1001.333,1617.387Z" transform="translate(-974.782 -1501.867)" fill="#ffb27d"/>
            <path id="Path_13" data-name="Path 13" d="M1001.333,1651.729a1.41,1.41,0,0,0-.232,1.456.011.011,0,0,0,0,.007,10.335,10.335,0,0,0,2.738,3.127c.163.141.307.271.434.392.034.031.067.061.1.092l.076.072c1.2,1.159.749,1.424,2.908,3.775,2.461,2.679,4.156,2.727,4.638,2.483.408-.208-.421-1.629-1.339-3.226a10.5,10.5,0,0,1-4.388-3.382c-1.482-1.978-2.471-4.521-3.48-5.993-.057.036-.112.073-.167.111A6.261,6.261,0,0,0,1001.333,1651.729Z" transform="translate(-974.782 -1536.208)" fill="#1c468a"/>
            <path id="Path_14" data-name="Path 14" d="M1153.757,1609.625c.292,1.523,2.367,1.269,4.686.676s1.768.112,5.068-.271,4.3-1.669,4.4-2.182c.09-.455-1.54-.616-3.29-.827-.22-.026-.441-.054-.662-.083-1.975-.259-3.421-1.593-5.214-2.687-1.7-1.037-4.234-5.262-4.234-5.262l-4.526.375s2.375,3.773,3.293,5.414a5.958,5.958,0,0,1,.444,3.227A6.375,6.375,0,0,0,1153.757,1609.625Z" transform="translate(-1089.17 -1497.186)" fill="#ffb27d"/>
            <path id="Path_15" data-name="Path 15" d="M1170.687,1635.332c2.319-.593,1.767.112,5.068-.27s4.3-1.669,4.4-2.182c.09-.456-1.541-.616-3.29-.827l-.016.035a9.043,9.043,0,0,1-4.726,1.537c-2.239.057-4.61-.614-6.157-.588a6.375,6.375,0,0,0,.035,1.62C1166.293,1636.179,1168.368,1635.925,1170.687,1635.332Z" transform="translate(-1101.415 -1522.217)" fill="#1c468a"/>
            <path id="Path_16" data-name="Path 16" d="M1122.865,1346.3s1.078-2.764,2.264-2.877,4.96-.733,5.23-.169a4.039,4.039,0,0,1-.809,3.328c-.809.733-5.823,1.917-5.823,1.917Z" transform="translate(-1068.349 -1303.397)" fill="#ffb27d"/>
            <path id="Path_17" data-name="Path 17" d="M1040.21,1494.5l-9.754,27.46a8.545,8.545,0,0,1-2.935-.282,12.421,12.421,0,0,1-2.837-1.445s2.42-26.366,6.856-31.85S1040.21,1494.5,1040.21,1494.5Z" transform="translate(-992.967 -1412.331)" fill="#163560"/>
            <path id="Path_18" data-name="Path 18" d="M907.562,1447.179s28.027-9.914,34.278-7.8,25.018,41.17,25.018,41.17a3.628,3.628,0,0,1-1.58,1.043,14.276,14.276,0,0,1-3.679.395s-16.937-15.187-18.954-19.616-2.823-8.648-4.839-8.226-26.011,10.336-31.455,4.43-4.02-13.58-4.02-13.58Z" transform="translate(-898.899 -1376.122)" fill="#1c468a"/>
            <path id="Path_19" data-name="Path 19" d="M917.3,1181.065a6.54,6.54,0,0,0-3.679-.736,1.687,1.687,0,0,1,.776-.385,5.51,5.51,0,0,0-2.035.555c-8.759-3.531-10.136,9.961-9.952,13.1s.2,6.742-4.168,9.553c-8.6,5.531-1.344,15.188-1.344,15.188.068.042,4,7.024,4,7.024-.221-2.533,10.951-15.9,16.78-19.9,1.419-2.185,1.923-6.046,1.961-6.349a17.3,17.3,0,0,1-1.193,5.744C923.384,1200.1,920.511,1182.974,917.3,1181.065Z" transform="translate(-892.658 -1179.914)" fill="#b5453c"/>
            <path id="Path_20" data-name="Path 20" d="M967.087,1257.744c.029.014-2.814,1.558-4.953.946-2.012-.574-3.326-3.3-3.3-3.309.852-.177,1.1-1.4,1.08-6.665l.385.079,6.476,1.342s-.148,2.132-.152,4.14C966.62,1255.964,966.717,1257.564,967.087,1257.744Z" transform="translate(-942.409 -1232.003)" fill="#ffb27d"/>
            <path id="Path_21" data-name="Path 21" d="M971.62,1250.384s-.147,2.132-.152,4.141c-3.624-.107-5.54-3.565-6.325-5.482Z" transform="translate(-947.254 -1232.249)" fill="#ed975d"/>
            <path id="Path_22" data-name="Path 22" d="M954.294,1202.623a20.392,20.392,0,0,1-2.355-5.823c-.325-1.916.608-9.02,7.431-8a9,9,0,0,1,3.845,1.521c1.482,1.047,3.62,3.306,1.229,9.505l-.621,2.094Z" transform="translate(-937.072 -1186.568)" fill="#b5453c"/>
            <path id="Path_23" data-name="Path 23" d="M969.557,1215.224s-8.574.148-8.58-5.439-1.117-9.331,4.358-9.662,6.54,1.8,6.976,3.665S971.787,1215.042,969.557,1215.224Z" transform="translate(-943.98 -1195.188)" fill="#ffb27d"/>
            <path id="Path_24" data-name="Path 24" d="M960.124,1196.127s-2.348,6.555-5.951,7.524-5.166-.041-5.166-.041a10.76,10.76,0,0,0,3.337-6.306S958.353,1193.007,960.124,1196.127Z" transform="translate(-934.865 -1191.329)" fill="#b5453c"/>
            <path id="Path_25" data-name="Path 25" d="M994.373,1198.525a7.853,7.853,0,0,1,2.181,2.886c.427,1.423.62,4.352,1.436,4.252,0,0,1.769-4.456-.219-6.976C995.662,1196.015,994.373,1198.525,994.373,1198.525Z" transform="translate(-969.695 -1193.195)" fill="#b5453c"/>
            <path id="Path_26" data-name="Path 26" d="M899.979,1302.633c-.846-3.71,2.031-10.908,5.034-16.868,2.725-5.4,5.553-9.783,5.807-9.626,7.187,4.462,7.836.752,7.836.752h0s6.529.906,8.377,4.235c2.292,4.13,4.77,15.67,7.23,17.854a5.055,5.055,0,0,0,.185,3.353q.129.482.285.916a17.979,17.979,0,0,0,1.235,2.654c-1.251.795-3.666,2.307-5.445,1.22-2.713-1.661-4.829-6.717-6.021-8.73l-.013-.023c-2.589,15.331.931,18.823-.851,20.44-1.882,1.707-4.571-.813-10.486,1.869-3.88,1.761-9.263,4.306-12.888,4.749-1.9.233-3.319-.113-3.781-1.455C895.14,1320.069,901.593,1309.705,899.979,1302.633Z" transform="translate(-894.396 -1252.761)" fill="#1c468a"/>
            <path id="Path_27" data-name="Path 27" d="M990.036,1247.037s.16.71,1.848.6c0,0,1.417-.092,1.374-.872A4.375,4.375,0,0,0,990.036,1247.037Z" transform="translate(-966.365 -1230.388)" fill="#fff"/>
            <path id="Path_28" data-name="Path 28" d="M896.484,1375.541c.462,1.343,1.88,1.689,3.781,1.455,2.509-1.143,13.345-5.535,13.224-8.511-.18-4.406-2.084-4.547-.739-9.984,1.079-4.366-8.934-12.485-10.531-14.25-3,5.96-3.086,6.241-2.24,9.951C901.593,1361.274,895.14,1371.638,896.484,1375.541Z" transform="translate(-894.396 -1304.33)" fill="#163560"/>
            <path id="Path_29" data-name="Path 29" d="M888.968,1308.092a16.157,16.157,0,0,1,5.241-5.066c-.3-.817,8.083-11.573,8.083-13.239,0-1.687,2.238-13.638,2.238-13.638s-6.988.452-9.407,3.981C892.1,1284.544,885.812,1301.533,888.968,1308.092Z" transform="translate(-888.104 -1252.771)" fill="#1c468a"/>
            <path id="Path_30" data-name="Path 30" d="M896.766,1386.787l13.964,3.812-1.311,2.461s-16.994-.124-17.894-1.206S896.766,1386.787,896.766,1386.787Z" transform="translate(-890.661 -1336.533)" fill="#ffb27d"/>
            <path id="Path_31" data-name="Path 31" d="M1017.754,1367.758c1.191,2.013,3.308,7.069,6.021,8.73,1.779,1.087,4.194-.425,5.445-1.22a17.98,17.98,0,0,1-1.235-2.653c-1,.239-2.216.544-3,.792C1023.455,1373.891,1017.754,1367.758,1017.754,1367.758Z" transform="translate(-987.647 -1322.126)" fill="#163560"/>
            <path id="Path_32" data-name="Path 32" d="M970.191,1399.234s4.385-1.3,5.43-.995,4.623,2.782,4.12,3.456-3.656-.4-5.107-.2-2.573.953-3.617.791a11.719,11.719,0,0,1-2.137-.592Z" transform="translate(-950.122 -1345.168)" fill="#ffb27d"/>
            <path id="Path_33" data-name="Path 33" d="M974.524,1396.674a16.347,16.347,0,0,0,2.756-1.81.167.167,0,0,1,.267.032c.164.27.317.791-.436,1.309A3.89,3.89,0,0,1,974.524,1396.674Z" transform="translate(-954.456 -1342.608)" fill="#ffb27d"/>
          </g>
        </g>
        <g id="Group_9" data-name="Group 9" transform="translate(28.465 37.211)">
          <path id="Path_34" data-name="Path 34" d="M994.15,1423.728H973.691a1.67,1.67,0,0,1,1.631-1.706H994.15Z" transform="translate(-973.691 -1400.42)" fill="#ed7d2b"/>
          <path id="Path_35" data-name="Path 35" d="M1035.776,1333.095h31.631l-7.587,23.309h-31.836Z" transform="translate(-1015.376 -1333.095)" fill="#ed7d2b"/>
          <path id="Path_36" data-name="Path 36" d="M1069.415,1333.1l-7.588,23.308h-31.835l7.792-23.308Z" transform="translate(-1016.917 -1333.096)" fill="#f99746"/>
          <path id="Path_37" data-name="Path 37" d="M1115.992,1375.158a2.081,2.081,0,0,1-1.9,1.612,1.23,1.23,0,0,1-1.186-1.612,2.08,2.08,0,0,1,1.9-1.612A1.23,1.23,0,0,1,1115.992,1375.158Z" transform="translate(-1080.548 -1363.719)" fill="#f9ddbf"/>
          <path id="Path_38" data-name="Path 38" d="M1104.964,1333.1l-7.588,23.308h-21.083c13.966-4.987,17.683-20.191,18.307-23.308Z" transform="translate(-1052.467 -1333.096)" fill="#ed893e"/>
        </g>
      </g>
      <g id="Group_15" data-name="Group 15" transform="translate(0 60.515)">
        <g id="Group_12" data-name="Group 12" transform="translate(4.615 3.598)">
          <g id="Group_11" data-name="Group 11">
            <path id="Path_39" data-name="Path 39" d="M802.389,1511.562a.828.828,0,0,0,.811-.695l3.973-23.556,5.715-33.879,1.6-9.473-4.07-.122-.706,5.5-4.958,38.647-2.939,22.908A.59.59,0,0,0,802.389,1511.562Z" transform="translate(-801.806 -1443.837)" fill="#95c0f4"/>
          </g>
          <path id="Path_40" data-name="Path 40" d="M835.837,1449.337a6.1,6.1,0,0,1,3.178,4.1l1.6-9.473-4.07-.122Z" transform="translate(-827.934 -1443.837)" fill="#78acea"/>
        </g>
        <g id="Group_14" data-name="Group 14" transform="translate(94.338 3.598)">
          <g id="Group_13" data-name="Group 13">
            <path id="Path_41" data-name="Path 41" d="M1200.273,1511.562a.827.827,0,0,1-.811-.695l-3.973-23.556-5.715-33.879-1.6-9.473,4.07-.122.706,5.5,4.958,38.647,2.939,22.908A.59.59,0,0,1,1200.273,1511.562Z" transform="translate(-1188.177 -1443.837)" fill="#95c0f4"/>
          </g>
          <path id="Path_42" data-name="Path 42" d="M1192.953,1449.337a6.1,6.1,0,0,0-3.178,4.1l-1.6-9.473,4.07-.122Z" transform="translate(-1188.177 -1443.837)" fill="#78acea"/>
        </g>
        <path id="Rectangle_3" data-name="Rectangle 3" d="M3.719,0H105.474a3.719,3.719,0,0,1,3.719,3.719v0a3.72,3.72,0,0,1-3.72,3.72H3.719A3.719,3.719,0,0,1,0,3.72v0A3.719,3.719,0,0,1,3.719,0Z" transform="translate(109.194 7.439) rotate(180)" fill="#78acea"/>
      </g>
    </g>
    <path id="Rectangle_4" data-name="Rectangle 4" d="M.852,0H613.335a.852.852,0,0,1,.852.852v0a.852.852,0,0,1-.852.852H.852A.852.852,0,0,1,0,.852v0A.852.852,0,0,1,.852,0Z" transform="translate(0 330.663)" fill="#8ca8ce"/>
    <g id="Group_18" data-name="Group 18" transform="translate(388.666 189.021)">
      <path id="Path_43" data-name="Path 43" d="M1900.783,1412.708s-2.7,3.509-1.859,3.987,3.079,1.373,3.605.809.692-4.7.692-4.7Z" transform="translate(-1885.012 -1344.424)" fill="#ffb27d"/>
      <path id="Path_44" data-name="Path 44" d="M1898.891,1412.948a3.945,3.945,0,0,0-1.541,1c-.435.6-1.4,1.519-1.161,1.773s1.616-.869,1.616-.869Z" transform="translate(-1883.01 -1344.606)" fill="#ffb27d"/>
      <path id="Path_45" data-name="Path 45" d="M1917.526,1219.878s-3.047,29.678-3.319,30.523c-.059.183-.3,1.123-.635,2.475-.48,1.93-1.157,4.7-1.8,7.341-.97,3.985-1.86,7.662-1.86,7.662l-2.645-.912s-.137-14.423.543-17.743,2.858-23.726,3.958-26.472S1917.526,1219.878,1917.526,1219.878Z" transform="translate(-1891.534 -1198.438)" fill="#aec3ff"/>
      <g id="Group_17" data-name="Group 17" transform="translate(0 71.1)">
        <path id="Path_46" data-name="Path 46" d="M1859.209,1449.067l-16.621-4.56a4.288,4.288,0,0,1-2.9-5.193l1.889-7.535a4.064,4.064,0,0,1,4.965-3.035l16.621,4.56a4.288,4.288,0,0,1,2.9,5.193l-1.889,7.535A4.065,4.065,0,0,1,1859.209,1449.067Z" transform="translate(-1839.554 -1427.56)" fill="#a02e2e"/>
        <path id="Path_47" data-name="Path 47" d="M1850.944,1429.117l-1.911,7.622a4.418,4.418,0,0,0,.99,4.02,4.047,4.047,0,0,0,1.092.86h0a3.86,3.86,0,0,0,.827.332l16.591,4.551a4.079,4.079,0,0,0,4.982-3.046l1.912-7.623a4.3,4.3,0,0,0-2.913-5.213l-5.713-1.567.408-1.626a1.417,1.417,0,0,0-.961-1.72l-.626-.172-3.475-.953-.864-.237a1.289,1.289,0,0,0-1.021.147,1.392,1.392,0,0,0-.623.858l-.408,1.626-3.309-.909a3.97,3.97,0,0,0-.392-.086h0a3.986,3.986,0,0,0-3.552,1.231h0A4.278,4.278,0,0,0,1850.944,1429.117Zm15.046-.287-5.937-1.628.408-1.626a.5.5,0,0,1,.614-.375l1.491.409,2.735.75.738.2a.517.517,0,0,1,.139.063.538.538,0,0,1,.22.579Z" transform="translate(-1846.73 -1424.301)" fill="#bc3f3f"/>
      </g>
      <path id="Path_48" data-name="Path 48" d="M1903.076,1425.789s.738-1.3.462-1.754-1.273,1.348-1.273,1.348.68-1.547.426-1.8-1.3,1.524-1.3,1.524.649-1.5.421-1.554-1,1.264-1,1.264.4-1.126.035-1.072-1.161,1.081-1.161,1.081Z" transform="translate(-1885.725 -1352.632)" fill="#ffb27d"/>
      <path id="Path_49" data-name="Path 49" d="M1923.888,1312.538c-.48,1.93-1.157,4.7-1.8,7.341a29.609,29.609,0,0,1-1.274-5.821c-.613-4.911,1.27-15.375,1.27-15.375Z" transform="translate(-1901.849 -1258.1)" fill="#9db0f4"/>
      <path id="Path_50" data-name="Path 50" d="M2078.843,1407.684s2.947,2.5,3.311,3.286a17.441,17.441,0,0,1,1.232,4.611c-.049.933-2.258-2.136-2.907-2.384s.678,1.26.529,1.583-1.532-.732-2.059-1.078-.9-2.687-1.684-3.962S2078.843,1407.684,2078.843,1407.684Z" transform="translate(-2021.94 -1340.621)" fill="#ffb27d"/>
      <path id="Path_51" data-name="Path 51" d="M1918.086,1690.023h14.691c1.053-.747-.284-8.047-.284-8.047s-4.01-1.592-4.7,1.645-5.107,4.263-7.443,4.657A2.542,2.542,0,0,0,1918.086,1690.023Z" transform="translate(-1899.849 -1547.984)" fill="#233862"/>
      <path id="Path_52" data-name="Path 52" d="M2011.912,1690.023H2026.6c1.053-.747-.284-8.047-.284-8.047s-4.009-1.592-4.7,1.645-5.107,4.263-7.443,4.657A2.543,2.543,0,0,0,2011.912,1690.023Z" transform="translate(-1971.887 -1547.984)" fill="#233862"/>
      <path id="Path_53" data-name="Path 53" d="M1935.106,1406.01s.66,8.618,1.437,18.978c1.055,14.073,3.9,48.965,3.9,48.965s1.865,1.665,6,.754a142.182,142.182,0,0,0,4.568-25.776q.025-.338.049-.679c.978-13.986,2.5-43.437,2.5-43.437Z" transform="translate(-1912.917 -1338.449)" fill="#2b478b"/>
      <path id="Path_54" data-name="Path 54" d="M1934.137,1397.473s.885,11.6,1.662,21.956l14.465,23.944c.016-.225.033-.452.049-.679.978-13.986,2.5-43.437,2.5-43.437Z" transform="translate(-1912.173 -1332.891)" fill="#233862"/>
      <path id="Path_55" data-name="Path 55" d="M1952.292,1381.022s10.492,27.318,13.845,37.674c2.389,7.376,9.126,33.252,9.126,33.252a6.508,6.508,0,0,0,5.392-.87s2.506-26.437-2.557-33.891c-2.687-3.955-.668-41.112-11.559-41.43S1952.292,1381.022,1952.292,1381.022Z" transform="translate(-1926.112 -1316.44)" fill="#2b478b"/>
      <path id="Path_56" data-name="Path 56" d="M1952.621,1264.332c-4.375,2.581-23.115,2.524-23.983.5-1.939-4.525-2.425-27.519-1.51-34.572,0,0,.473-10.839,1.51-10.361,6.922-3.327,18.127-.306,18.127-.306,3.021.931,2.762,8.153,3.6,18.294.108,1.307.229,2.669.363,4.076.6,6.263,1.464,13.457,2.782,21.046C1953.6,1263.508,1953.271,1263.95,1952.621,1264.332Z" transform="translate(-1906.449 -1197.269)" fill="#aec3ff"/>
      <path id="Path_57" data-name="Path 57" d="M1966.147,1193.576c-.116,1.939-2.533,1.719-5.44,1.025s-1.853-2.485-1.853-2.485.043-1.377.226-3.028c.067-.6.151-1.238.261-1.858.051-.3.108-.6.174-.891.38-1.706,5.806-.06,5.767.4C1965.175,1187.977,1966.032,1192.053,1966.147,1193.576Z" transform="translate(-1931.007 -1172.473)" fill="#ffb27d"/>
      <path id="Path_58" data-name="Path 58" d="M1963.288,1224.07l-.229-2.678,3.217.635-1.238,2.391Z" transform="translate(-1934.378 -1199.584)" fill="#233862"/>
      <path id="Path_59" data-name="Path 59" d="M1953.406,1207.286l-1.923,3.058a4.535,4.535,0,0,0,1.668,3.246l2.629-2.561S1954.08,1210.352,1953.406,1207.286Z" transform="translate(-1925.491 -1188.905)" fill="#9db0f4"/>
      <path id="Path_60" data-name="Path 60" d="M1969.986,1212.547a7.307,7.307,0,0,0,1.6,2.983s4.1-1.154,5.083-3.354l-2.138-2.887S1974.425,1211.474,1969.986,1212.547Z" transform="translate(-1939.697 -1190.422)" fill="#9db0f4"/>
      <path id="Path_61" data-name="Path 61" d="M1966.673,1191.917a9.733,9.733,0,0,1-6.232,1.386c.067-.6.151-1.239.261-1.858.714-.182,1.313-.295,1.313-.295Z" transform="translate(-1932.369 -1176.689)" fill="#e2915a"/>
      <path id="Path_62" data-name="Path 62" d="M1962.732,1152.952c-1.276,3.677-5.936,2.738-7.921,2.148-.559-.165-.9-.3-.9-.3-.613-.291-.8-1.41-.749-2.824a22.687,22.687,0,0,1,1.769-7.7c.912-1.432,2.433-2.889,6.954-.861S1964.37,1148.242,1962.732,1152.952Z" transform="translate(-1926.77 -1139.789)" fill="#ffb27d"/>
      <path id="Path_63" data-name="Path 63" d="M1968.188,1142.894c-1.427,1.217-4.492,3.47-4.492,3.47a5.906,5.906,0,0,0,.758-1.637,1.681,1.681,0,0,0,.056-.554,3.164,3.164,0,0,1,.419-1.7c.187-.317.255-.646.018-.879-.387-.384-1.049-.031-1.482.279a.843.843,0,0,1-.956.025l-.006,0c-1.219-.8.127-2.206-.863-3.374s-5.279-1.328-5.107-2.061c-1.464-.865-.541-4.058-.514-4.226a15.143,15.143,0,0,0,4.724-.491c2.129-.559,4.477.871,5.219,1.46a1.292,1.292,0,0,0-.119-.544,1.174,1.174,0,0,1,.317.722c.033.034.047.057.037.064a1.362,1.362,0,0,1,.672.162s-.182-.06-.268.053a.127.127,0,0,1-.037.03C1969.414,1135.8,1969.372,1141.882,1968.188,1142.894Z" transform="translate(-1928.735 -1131.618)" fill="#233862"/>
      <path id="Path_64" data-name="Path 64" d="M1958.1,1181.18s-.229.463-1.382.079c0,0-.967-.322-.807-.855A3.158,3.158,0,0,1,1958.1,1181.18Z" transform="translate(-1928.878 -1168.547)" fill="#fff"/>
      <path id="Path_65" data-name="Path 65" d="M1955.679,1232.417s-2.567,33.933-2.531,36.76,2.844,5.817,2.844,5.817a12.6,12.6,0,0,0,2.675-5.267c.437-2.7-1.238-36.961-1.238-36.961Z" transform="translate(-1926.769 -1207.93)" fill="#2a4e96"/>
      <path id="Path_66" data-name="Path 66" d="M2013.169,1223.513s4.144,1.037,7.419,7.62,5.864,19.86,7.427,23.365,2.636,14.54,2.636,14.54l-2.476,1.271s-5.979-11.311-6.863-15.02c-.479-2.007-7.789-18.072-7.789-18.072Z" transform="translate(-1972.852 -1201.19)" fill="#aec3ff"/>
      <path id="Path_67" data-name="Path 67" d="M2019.452,1319.5h0c-7.8-1.174-5.566-28.187-4.954-28.294s2.856,4.828,2.856,4.828l.215,1.1c.6,6.263,1.463,13.457,2.782,21.046C2020.434,1318.675,2020.1,1319.117,2019.452,1319.5Z" transform="translate(-1973.28 -1252.437)" fill="#9db0f4"/>
    </g>
    <g id="Group_21" data-name="Group 21" transform="translate(463.658 128.049)">
      <g id="Group_19" data-name="Group 19" transform="translate(9.576 88.754)">
        <path id="Path_68" data-name="Path 68" d="M2418.669,1646.015s3.249,3.1,2.615,5.3-3.565,3.672-3.962,6.366-1.981,4.162-3.407,4.162h-6.8s-1.049-1.9,1.486-2.467,3.491-3.736,3.333-6.674a54.118,54.118,0,0,1,.238-6.855l5.388-1.306Z" transform="translate(-2359.719 -1547.725)" fill="#233862"/>
        <path id="Path_69" data-name="Path 69" d="M2222.823,1675.1s.583,7.058-.843,7.792l-18.252-.039s0-2.2,2.931-2.693,8.082-2.285,8.954-6.285S2222.823,1675.1,2222.823,1675.1Z" transform="translate(-2203.727 -1568.789)" fill="#233862"/>
        <path id="Path_70" data-name="Path 70" d="M2219.6,1267.856s.963,12.372,2.094,27.244c1.538,20.2,3.387,45.016,3.57,49.717.316,8.163,1.585,21.22,1.585,21.22s3.01,3.1,9.033,1.795a219.323,219.323,0,0,0,6.9-38.362c.023-.323.047-.649.071-.974,1.426-20.077,3.644-62.354,3.644-62.354Z" transform="translate(-2215.912 -1261.245)" fill="#2a4e96"/>
        <path id="Path_71" data-name="Path 71" d="M2219.6,1267.856s.963,12.372,2.094,27.244l21.089,34.37c.023-.323.047-.649.071-.974,1.426-20.077,3.644-62.354,3.644-62.354Z" transform="translate(-2215.912 -1261.245)" fill="#233862"/>
        <path id="Path_72" data-name="Path 72" d="M2238.529,1254.064s17.352,44.806,28.762,65.862,14.975,26.932,14.975,26.932,6.536-2.693,7.131-4.53c0,0-4.363-40.65-12-50.56-4.317-5.6-8.042-18.022-7.855-23.9.322-10.138-3.317-21.885-3.317-21.885Z" transform="translate(-2230.448 -1245.984)" fill="#2a4e96"/>
      </g>
      <path id="Path_73" data-name="Path 73" d="M2166.29,1281.955s-3.24,4.589-3.478,5.814-.519,5.6-.131,6.877,2.408-3.819,3.226-4.407-.511,2.007-.193,2.4,1.879-1.594,2.494-2.273.326-4.075.983-6.143S2166.29,1281.955,2166.29,1281.955Z" transform="translate(-2162.489 -1184.463)" fill="#ffb27d"/>
      <path id="Path_74" data-name="Path 74" d="M2190.48,1007.424s-4.378,42.635-4.768,43.85c-.085.264-.428,1.613-.912,3.555-.689,2.773-1.663,6.758-2.586,10.547-1.393,5.724-2.9,10.674-2.9,10.674a3.694,3.694,0,0,1-2.256.305,2.386,2.386,0,0,1-1.675-1.069s.16-20.933,1.136-25.7,4.106-34.086,5.687-38.031S2190.48,1007.424,2190.48,1007.424Z" transform="translate(-2172.391 -976.622)" fill="#fff"/>
      <path id="Path_75" data-name="Path 75" d="M2200.745,1140.539c-.689,2.773-1.663,6.759-2.586,10.547a42.609,42.609,0,0,1-1.83-8.362c-.88-7.056,1.824-22.088,1.824-22.088Z" transform="translate(-2188.335 -1062.332)" fill="#dceaff"/>
      <path id="Path_76" data-name="Path 76" d="M2242.024,1071.287c-6.284,3.709-33.208,3.626-34.455.715-2.786-6.5-3.484-39.534-2.17-49.667,0,0,.68-15.572,2.17-14.885,9.945-4.779,26.041-.438,26.041-.438,4.34,1.338,3.968,11.712,5.179,26.281.156,1.878.329,3.835.522,5.857.856,9,2.1,19.333,4,30.235C2243.435,1070.1,2242.957,1070.738,2242.024,1071.287Z" transform="translate(-2194.943 -974.943)" fill="#fff"/>
      <path id="Path_77" data-name="Path 77" d="M2261.454,969.638c-.167,2.786-3.639,2.47-7.815,1.473s-2.663-3.571-2.663-3.571.062-1.979.326-4.35c.1-.862.217-1.779.375-2.669.073-.436.156-.865.249-1.279.546-2.451,8.34-.086,8.285.573C2260.058,961.594,2261.289,967.451,2261.454,969.638Z" transform="translate(-2230.223 -939.321)" fill="#ffb27d"/>
      <path id="Path_78" data-name="Path 78" d="M2257.348,1013.446l-.33-3.848,4.623.913-1.779,3.435Z" transform="translate(-2235.067 -978.268)" fill="#233862"/>
      <path id="Path_79" data-name="Path 79" d="M2243.151,989.333l-2.762,4.394a6.516,6.516,0,0,0,2.4,4.664l3.776-3.679S2244.12,993.738,2243.151,989.333Z" transform="translate(-2222.299 -962.926)" fill="#dceaff"/>
      <path id="Path_80" data-name="Path 80" d="M2266.971,996.893a10.5,10.5,0,0,0,2.295,4.286s5.9-1.658,7.3-4.818l-3.071-4.147S2273.348,995.35,2266.971,996.893Z" transform="translate(-2242.708 -965.106)" fill="#dceaff"/>
      <path id="Path_81" data-name="Path 81" d="M2262.211,967.255a13.982,13.982,0,0,1-8.953,1.991c.1-.862.217-1.779.375-2.669,1.026-.261,1.885-.423,1.885-.423Z" transform="translate(-2232.179 -945.377)" fill="#e2915a"/>
      <path id="Path_82" data-name="Path 82" d="M2256.55,911.278c-1.834,5.282-8.528,3.933-11.379,3.085-.8-.237-1.3-.436-1.3-.436-.881-.418-1.154-2.026-1.077-4.058.152-4.02,1.67-9.7,2.54-11.064,1.311-2.058,3.5-4.15,9.99-1.236S2258.9,904.51,2256.55,911.278Z" transform="translate(-2224.136 -892.366)" fill="#ffb27d"/>
      <path id="Path_83" data-name="Path 83" d="M2264.387,896.827c-2.05,1.749-6.453,4.985-6.453,4.985a8.5,8.5,0,0,0,1.089-2.351,2.421,2.421,0,0,0,.081-.8,4.551,4.551,0,0,1,.6-2.44c.268-.455.365-.928.026-1.263-.556-.552-1.506-.045-2.129.4a1.212,1.212,0,0,1-1.373.036l-.008-.005c-1.751-1.147.182-3.169-1.24-4.847s-7.584-1.908-7.337-2.96c-2.1-1.242-.777-5.828-.739-6.071a21.756,21.756,0,0,0,6.786-.706c3.059-.8,6.431,1.252,7.5,2.1a1.866,1.866,0,0,0-.17-.782,1.686,1.686,0,0,1,.454,1.037c.047.049.067.083.053.092a1.955,1.955,0,0,1,.965.233s-.261-.086-.384.077a.2.2,0,0,1-.053.043C2266.149,886.633,2266.088,895.373,2264.387,896.827Z" transform="translate(-2226.958 -880.628)" fill="#bc3f3f"/>
      <path id="Path_84" data-name="Path 84" d="M2249.9,951.828s-.33.665-1.985.114c0,0-1.39-.463-1.16-1.229A4.538,4.538,0,0,1,2249.9,951.828Z" transform="translate(-2227.165 -933.68)" fill="#fff"/>
      <path id="Path_85" data-name="Path 85" d="M2246.416,1025.438s-3.687,48.748-3.635,52.809,4.086,8.356,4.086,8.356,3.215-3.681,3.843-7.567-1.779-53.1-1.779-53.1Z" transform="translate(-2224.135 -990.26)" fill="#2a4e96"/>
      <path id="Path_86" data-name="Path 86" d="M2338.034,1150.542h-.006c-11.208-1.687-8-40.494-7.117-40.647s4.1,6.936,4.1,6.936l.308,1.574c.856,9,2.1,19.332,4,30.235C2339.445,1149.358,2338.967,1149.993,2338.034,1150.542Z" transform="translate(-2290.953 -1054.198)" fill="#dceaff"/>
      <g id="Group_20" data-name="Group 20" transform="translate(45.867 100.501)">
        <path id="Path_87" data-name="Path 87" d="M2394.167,1325.413l-23.7,7.215a5.824,5.824,0,0,1-7.241-4.16l-2.989-10.746a6.175,6.175,0,0,1,3.977-7.574l23.7-7.215a5.825,5.825,0,0,1,7.241,4.16l2.989,10.745A6.175,6.175,0,0,1,2394.167,1325.413Z" transform="translate(-2360.004 -1300.663)" fill="#a02e2e"/>
        <path id="Path_88" data-name="Path 88" d="M2373.68,1310.445l3.024,10.869a6.009,6.009,0,0,0,4.058,4.19,5.53,5.53,0,0,0,1.953.217h0a5.491,5.491,0,0,0,1.254-.229l23.659-7.2a6.2,6.2,0,0,0,3.991-7.6l-3.023-10.87a5.848,5.848,0,0,0-7.269-4.175l-8.146,2.481-.645-2.319a1.926,1.926,0,0,0-2.4-1.378l-.893.271-4.956,1.509-1.231.375a1.945,1.945,0,0,0-1.155.969,2.089,2.089,0,0,0-.162,1.539l.645,2.319-4.719,1.436a5.637,5.637,0,0,0-.544.2s0,0,0,0h0a6.085,6.085,0,0,0-3.509,4.26v0A6.354,6.354,0,0,0,2373.68,1310.445Zm18.341-11.972-8.466,2.578-.645-2.319a.763.763,0,0,1,.492-.936l2.126-.647,3.9-1.189,1.052-.319a.708.708,0,0,1,.216-.029.729.729,0,0,1,.68.544Z" transform="translate(-2370.326 -1294.343)" fill="#bc3f3f"/>
      </g>
      <path id="Path_89" data-name="Path 89" d="M2422.2,1277.087s-.735,6.429.642,6.337,4.75-.783,4.98-1.891-2.583-6.272-2.583-6.272Z" transform="translate(-2361.742 -1179.395)" fill="#ffb27d"/>
      <path id="Path_90" data-name="Path 90" d="M2418.765,1282.709a6.071,6.071,0,0,0-1.145,2.449c-.091,1.079-.594,2.963-.122,3.085s1.335-2.347,1.335-2.347Z" transform="translate(-2358.127 -1185.033)" fill="#ffb27d"/>
      <path id="Path_91" data-name="Path 91" d="M2329.008,1012.645s5.953,1.49,10.659,10.948,8.424,28.531,10.67,33.566,3.957,20.141,3.957,20.141a2.217,2.217,0,0,1-1.561,1.025,7.065,7.065,0,0,1-1.9.13s-8.851-14.83-10.121-20.159c-.687-2.883-11.189-25.962-11.189-25.962Z" transform="translate(-2290.339 -980.575)" fill="#fff"/>
    </g>
    <g id="Group_22" data-name="Group 22" transform="translate(63.214 144.962)">
      <path id="Path_92" data-name="Path 92" d="M637.782,1659.286l-.892-6.72,3.747-3.275,1.18,8.9Z" transform="translate(-590.721 -1479.476)" fill="#ffb27d"/>
      <path id="Path_93" data-name="Path 93" d="M643.53,1688.632H628.255a9.158,9.158,0,0,1,.432-4.283c.764-1.773,1.954-2.867,2.063-4.225a4.47,4.47,0,0,0,4.373,1.407,17.467,17.467,0,0,0,2.65,3.594C638.772,1685.875,643.223,1685.608,643.53,1688.632Z" transform="translate(-584.027 -1502.819)" fill="#233862"/>
      <path id="Path_94" data-name="Path 94" d="M618.49,1289.6c-1,8.406-1.816,16.332-2.481,23.718-3.555,39.355-2.857,63.409-2.857,63.409s-.257.712-2.461.723a12.107,12.107,0,0,1-2.466-.278s-7.959-25.7-7.345-40.323a23.409,23.409,0,0,1,.621-4.734c1.91-7.482-7.066-36.1,2.691-46.753S618.949,1285.739,618.49,1289.6Z" transform="translate(-562.056 -1200.533)" fill="#f99746"/>
      <path id="Path_95" data-name="Path 95" d="M618.49,1289.6c-1,8.406-1.816,16.332-2.481,23.718l-15.129,23.531a23.409,23.409,0,0,1,.621-4.734c1.91-7.482-7.066-36.1,2.691-46.753S618.949,1285.739,618.49,1289.6Z" transform="translate(-562.056 -1200.533)" fill="#ed7d2b"/>
      <path id="Path_96" data-name="Path 96" d="M730.217,959.129s-.368-1.921-.783-3.386c-.183-.649,1.1-4.908,1.98-5.432s3.19,2.344,2.537,4.547c-.335,1.132-.885,4.813-.885,4.813Z" transform="translate(-661.761 -950.248)" fill="#ffb27d"/>
      <path id="Path_97" data-name="Path 97" d="M725.807,973.743s-.481-1.114-.916-1.294-.9-2-1.219-2.723c0,0,.308-.472.847.135.329.371,1.062,1.458,1.062,1.458Z" transform="translate(-657.351 -964.861)" fill="#ffb27d"/>
      <path id="Path_98" data-name="Path 98" d="M443.474,1001.028c-.094.2-.224.564-.34.9q0-.139,0-.274c-.006-.676-2.421-4.358-3.413-4.588s-2.394,3.218-1.154,5.125c.637.979,2.193,4.331,2.193,4.331l2.573-1.39s.148-1.213.513-1.518.3-2.189.4-2.977C444.246,1000.64,443.82,1000.282,443.474,1001.028Z" transform="translate(-438.076 -985.686)" fill="#ffb27d"/>
      <path id="Path_99" data-name="Path 99" d="M529.525,1654.581c-.216-2.154-.269-7.821-.269-7.821s5.52-1.846,5.317-.579a42.647,42.647,0,0,0-.728,9.316l-2.232,1.4Z" transform="translate(-508.082 -1476.786)" fill="#ffb27d"/>
      <path id="Path_100" data-name="Path 100" d="M555.771,1311.531s-21.325,61.15-25.523,87.676a4.1,4.1,0,0,1-2.787.467,3.136,3.136,0,0,1-2.621-1.758s-3.852-31.792,3.8-42.829c5.26-7.583-2.269-40.885,9.984-43.556S555.771,1311.531,555.771,1311.531Z" transform="translate(-503.948 -1222.868)" fill="#f99746"/>
      <path id="Path_101" data-name="Path 101" d="M529.817,1035.5v0a.522.522,0,0,0-.018-.079c-.124-.538-.261-1.068-.407-1.594v0a36.976,36.976,0,0,0-1.55-4.491c-.33-.775-.671-1.493-1.021-2.133-.053-.1-.105-.191-.156-.285l0,0a6.3,6.3,0,0,0-2.436-2.76,7,7,0,0,0-4.013-.174,1.84,1.84,0,0,1,.766-.536,5.969,5.969,0,0,0-2.075.924c-9.822-2.3-9.248,12.237-8.579,15.531s-2.5,4.9-6.956,8.266c-8.511,6.432-8.368,13.249-8.368,13.249.077.034.16.073.247.119.342-.882,1.069-2.552,1.83-2.9-.021.078-.641,2.242-.816,3.452,1.3.748,3.091,1.9,5.039,3.211l0,0c2.607,1.745,5.484,3.753,7.789,5.384a5.782,5.782,0,0,1-.057-2.145l.735,2.381.1.31c1.471,1.043,2.632,1.878,3.222,2.305.061.043.114.083.162.116l.265.191c-.2-.841.663-3.035,2.1-5.8.1-.193.2-.389.31-.588.465-.874.985-1.795,1.544-2.744.2-.343.405-.687.617-1.036,0,0,0,0,0,0,.169-.282.34-.561.517-.846l0,0c.418-.675.85-1.354,1.29-2.035,1.142-1.764,2.351-3.516,3.545-5.122a44.3,44.3,0,0,1,4.862-5.7c.046-.1.091-.2.13-.307a10.514,10.514,0,0,0,.527-1.757c.041-.184.078-.37.111-.554a25.171,25.171,0,0,0,.357-4.358,25.8,25.8,0,0,1-.052,4.392c-.027.237-.057.455-.091.659v0a9.354,9.354,0,0,1-.258,1.155,6.044,6.044,0,0,0,.62-1,7.22,7.22,0,0,0,.323-.747C531.123,1044.377,530.813,1039.8,529.817,1035.5Z" transform="translate(-481.781 -1005.664)" fill="#163560"/>
      <path id="Path_102" data-name="Path 102" d="M606.871,1107.547c.033.01-2.749,2.117-5.11,1.821-2.22-.276-4.026-2.953-4-2.964.877-.328.953-1.668.14-7.247l.42.021,7.07.354s.165,2.285.464,4.416C606.108,1105.737,606.453,1107.417,606.871,1107.547Z" transform="translate(-560.681 -1062.983)" fill="#ffb27d"/>
      <path id="Path_103" data-name="Path 103" d="M607.248,1099.6s.165,2.285.464,4.416c-3.86.484-6.412-2.867-7.534-4.77Z" transform="translate(-562.535 -1063.047)" fill="#ed975d"/>
      <path id="Path_104" data-name="Path 104" d="M584.6,1048.18a21.521,21.521,0,0,1-3.376-5.787c-.634-1.978-.716-9.666,6.675-9.707a9.555,9.555,0,0,1,4.307.978c1.729.866,4.337,2.909,2.737,9.878l-.343,2.323Z" transform="translate(-547.782 -1012.658)" fill="#163560"/>
      <path id="Path_105" data-name="Path 105" d="M584.869,1169.249a28.833,28.833,0,0,1-20.753,2.779c-.136-.035-9.512-1.6-9.512-1.6.161-.461,1.373-8.038,1.531-8.462,2.049-5.532,5.795-35.559,8.924-37.04.8.911,3.083,1.534,5.037,1.352,2.251-.208,3-1.225,2.817-2.32,2.491,1.232,4.4,2.377,4.4,2.377C579.6,1129.9,584.869,1169.249,584.869,1169.249Z" transform="translate(-527.544 -1081.76)" fill="#fff"/>
      <path id="Path_106" data-name="Path 106" d="M601.534,1059.254s-9.071,1.571-9.92-4.353-2.591-9.712,3.165-10.966,7.207.83,7.95,2.735S603.871,1058.692,601.534,1059.254Z" transform="translate(-555.249 -1020.888)" fill="#ffb27d"/>
      <path id="Path_107" data-name="Path 107" d="M590.8,1039.074s-1.5,7.339-5.176,8.962-5.484.809-5.484.809a11.714,11.714,0,0,0,2.588-7.238S588.449,1036.058,590.8,1039.074Z" transform="translate(-547.148 -1016.816)" fill="#163560"/>
      <path id="Path_108" data-name="Path 108" d="M623.731,1040.226a8.257,8.257,0,0,1,2.748,2.7c.668,1.438,1.314,4.513,2.164,4.273,0,0,1.2-5.017-1.284-7.362C624.72,1037.351,623.731,1040.226,623.731,1040.226Z" transform="translate(-580.618 -1017.307)" fill="#163560"/>
      <path id="Path_109" data-name="Path 109" d="M659.449,985.706a5.611,5.611,0,0,0-1.622-.524,4.829,4.829,0,0,0-1.425.156s-2.559,16.642-2.749,17.524-10.977,13.593-13.886,13.543c-2.626-.046-5.737,2.075-6.315,2.482,0,0,6.116,13.528,6.421,16.07.332,2.765,3.5,45.348,3.5,45.348s-.188,1.981,3.35.916,4.423-1.946,4.423-1.946-3.25-33.524-3.932-43.95a20.806,20.806,0,0,0-.621-3.89,4.089,4.089,0,0,1,.609-3.349c4.473-6.424,11.538-16.832,11.931-19.043C659.71,1005.791,659.449,985.706,659.449,985.706Z" transform="translate(-588.082 -976.687)" fill="#2b478b"/>
      <path id="Path_110" data-name="Path 110" d="M534.442,1688.632H519.167a9.159,9.159,0,0,1,.432-4.283c.765-1.773,1.954-2.867,2.063-4.225a4.47,4.47,0,0,0,4.373,1.407,17.452,17.452,0,0,0,2.651,3.594C529.684,1685.875,534.135,1685.608,534.442,1688.632Z" transform="translate(-500.272 -1502.819)" fill="#233862"/>
      <path id="Path_111" data-name="Path 111" d="M491.6,1068.851c-.515-3.314-7.088-16.62-7.088-16.62s-4.155-1.3-6.89-.264-16.884-7.321-17.338-8.09-8.032-15.542-8.032-15.542a1.69,1.69,0,0,0-1.635.168,1.947,1.947,0,0,0-1,1.6s5.849,18.6,7.405,21.477c.938,1.735,8.827,7.775,14.944,12.3a4.1,4.1,0,0,1,1.59,3.817c-.823,6.36-1.032,9.942-1.978,20.856-.784,9.053-1.085,26.582-1.085,26.582s6.845,2.477,11.568,2.806,5.753-4.88,5.753-4.88S492.131,1072.258,491.6,1068.851Z" transform="translate(-446.938 -1009.268)" fill="#2b478b"/>
      <path id="Path_112" data-name="Path 112" d="M624.587,1093.434a3.907,3.907,0,0,0,2.4.473c.891-.14,1.094-1.246,1.094-1.246a3.362,3.362,0,0,0-1.608,0A6.693,6.693,0,0,0,624.587,1093.434Z" transform="translate(-581.275 -1057.997)" fill="#fff"/>
    </g>
    <g id="Group_24" data-name="Group 24" transform="translate(268.308 47.893)">
      <path id="Path_113" data-name="Path 113" d="M1866.008,599.487s-4.245-7.891,0-9.5,6.165-.125,6.367,1.673-1.617,8.88-1.617,8.88Z" transform="translate(-1738.059 -570.802)" fill="#ffb27d"/>
      <path id="Path_114" data-name="Path 114" d="M1685.92,675.463a131.411,131.411,0,0,1-21.276,2.286,113.451,113.451,0,0,1-16.354-.77q-1.928-.231-3.707-.516c-12.53-1.987-19.449-5.512-19.449-5.512s11.449-25.069,20.7-24.107c10.85,1.131,29.236,11.317,31.063,8.46,2.057-3.218,3.78-30.818,3.78-30.818,4.811-3.446,7.683.186,7.683.186S1697.753,673.23,1685.92,675.463Z" transform="translate(-1554.569 -596.312)" fill="#f99746"/>
      <path id="Path_115" data-name="Path 115" d="M1753.043,796.03a131.425,131.425,0,0,1-21.276,2.286,113.432,113.432,0,0,1-16.354-.77c-2.887-9.6-4.963-19.413.843-13.5C1726.5,794.478,1753.043,796.03,1753.043,796.03Z" transform="translate(-1621.692 -719.034)" fill="#ed7d2b"/>
      <path id="Path_116" data-name="Path 116" d="M1620.842,1660.16s-.823,9.966,1.19,11l25.772-.055s0-3.111-4.139-3.8-11.412-3.227-12.642-8.874S1620.842,1660.16,1620.842,1660.16Z" transform="translate(-1551.146 -1387.716)" fill="#233862"/>
      <path id="Path_117" data-name="Path 117" d="M1594.535,1078.366c-.127,6.517-.426,13.238-1.012,19.28-2.783,28.665-3.762,63.3-4.162,69.978-.693,11.591-2.882,30.11-2.882,30.11s-4.342,4.311-12.8,2.254c0,0-7.012-26.671-8.578-54.756-.024-.46-.049-.924-.071-1.387-.182-3.713-.372-7.959-.566-12.536-1.29-30.664-2.69-76.216-2.69-76.216l32.34-7.944S1594.852,1062.12,1594.535,1078.366Z" transform="translate(-1505.918 -926.54)" fill="#2a4e96"/>
      <path id="Path_118" data-name="Path 118" d="M1594.535,1078.366c-8.2,14.793-23.819,42.046-30.077,52.942-1.29-30.664-2.69-76.216-2.69-76.216l32.34-7.944S1594.852,1062.12,1594.535,1078.366Z" transform="translate(-1505.918 -923.097)" fill="#233862"/>
      <path id="Path_119" data-name="Path 119" d="M1327.994,1057.7s-5.262,6.474-5.736,8.269-1.317,8.263-.865,10.206,3.951-5.419,5.223-6.205-.955,2.928-.52,3.548,2.948-2.168,3.928-3.111.883-6.021,2.059-9.024S1327.994,1057.7,1327.994,1057.7Z" transform="translate(-1321.264 -929.815)" fill="#ffb27d"/>
      <path id="Path_120" data-name="Path 120" d="M1332.337,1619.092s-4.587,4.379-3.692,7.491,5.034,5.185,5.594,8.988,2.8,5.877,4.811,5.877h9.6s1.482-2.676-2.1-3.483-4.93-5.275-4.706-9.424a76.465,76.465,0,0,0-.336-9.68l-7.608-1.844Z" transform="translate(-1326.842 -1357.975)" fill="#233862"/>
      <path id="Path_121" data-name="Path 121" d="M1422.526,1050.618s-30.274,67.761-46.385,97.492S1355,1186.14,1355,1186.14s-9.23-3.8-10.069-6.4c0,0,6.161-57.4,16.95-71.391,6.1-7.906,13.257-31.633,13.593-39.93s7.408-28.1,7.408-28.1Z" transform="translate(-1339.432 -921.372)" fill="#2a4e96"/>
      <path id="Path_122" data-name="Path 122" d="M1538.528,789.537a50.8,50.8,0,0,1-29.079,7.638c-7.478-.342-22.311-2.56-24.705-8.781-.562-1.46-.15-3.314.693-6.16,2.188-7.4,7.289-21.476,5.749-52.7a53.576,53.576,0,0,1,.2-8.194c1.6-15.379,10.03-24.487,18.173-27.463,19.86-7.261,26.48,2.8,26.48,2.8s8.779,7.276,10.1,22.459C1548.786,749.508,1538.528,789.537,1538.528,789.537Z" transform="translate(-1446.582 -647.979)" fill="#f99746"/>
      <path id="Path_123" data-name="Path 123" d="M1617.52,634.924s9.112,5.8,19,4.158c0,0,1.954-.52.993-2.919a31.738,31.738,0,0,0,.877-3.2,50.253,50.253,0,0,0,1.132-5.223l-5.609-6.167-5.312-5.893C1627.13,629.764,1617.52,634.924,1617.52,634.924Z" transform="translate(-1548.723 -590.768)" fill="#ffb27d"/>
      <path id="Path_124" data-name="Path 124" d="M1661.557,637.668s3.052,8.535,10.641,11.942c.867-3.312,1.431-6.777,1.431-6.777l-5.908-4.613Z" transform="translate(-1582.534 -607.416)" fill="#ed985f"/>
      <path id="Path_125" data-name="Path 125" d="M1673.4,571.385s-17.394,2.275-18.615-8.907-4.288-18.419,6.766-20.344,13.681,2.094,14.97,5.725S1677.89,570.5,1673.4,571.385Z" transform="translate(-1576.308 -534.712)" fill="#ffb27d"/>
      <path id="Path_126" data-name="Path 126" d="M1631.208,518.741c-.15-.195-.507-.361-1.311-.439a3.161,3.161,0,0,1,1.521-.384c.211-1.165.882-3.216,2.828-3.643a2.509,2.509,0,0,0-1.237,1.777c2.32-2.31,7.167-3.867,20.376-2.249,17.408,2.132,11.231,13.6,8.92,14.9s-7.863-2.742-12.087-2.559-5.255,6.518-6.715,7.335-.843-.705-2.743-1.7-2.2,2.353-1.726,4.554-2.28,4.969-2.28,4.969l-2.575-3.13c-2.575-3.13-4.642-16.038-3.323-18.72C1630.974,519.222,1631.089,518.982,1631.208,518.741Z" transform="translate(-1558.227 -513.137)" fill="#2c3a64"/>
      <g id="Group_23" data-name="Group 23" transform="translate(94.909 8.993)">
        <path id="Path_127" data-name="Path 127" d="M1766,588.61l-29.53.275-.2-4.647,29.438-2.387Z" transform="translate(-1734.805 -574.153)" fill="#2a4e96"/>
        <path id="Path_128" data-name="Path 128" d="M1852.777,579.953l-32.15.486-.367-8.449,32.059-2.6Z" transform="translate(-1799.291 -564.719)" fill="#2a4e96"/>
        <path id="Path_129" data-name="Path 129" d="M1962.367,572.15l-27.112.035-.5-11.406,27-2.57Z" transform="translate(-1887.202 -556.253)" fill="#233862"/>
        <path id="Path_130" data-name="Path 130" d="M2047.966,567.98h0a1.56,1.56,0,0,0,1.446-1.656l-.636-14.652a1.544,1.544,0,0,0-1.583-1.512h0a1.56,1.56,0,0,0-1.446,1.656l.636,14.652A1.545,1.545,0,0,0,2047.966,567.98Z" transform="translate(-1972.414 -550.158)" fill="#233862"/>
        <path id="Path_131" data-name="Path 131" d="M1731.539,594.259h0a1.373,1.373,0,0,1-1.407-1.344l-.165-3.8a1.386,1.386,0,0,1,1.285-1.472h0a1.373,1.373,0,0,1,1.407,1.344l.165,3.8A1.386,1.386,0,0,1,1731.539,594.259Z" transform="translate(-1729.965 -578.534)" fill="#2a4e96"/>
      </g>
      <path id="Path_132" data-name="Path 132" d="M1488.582,875.926c2.188-7.4,7.289-21.476,5.749-52.7a53.575,53.575,0,0,1,.2-8.193h0c6.536-.588,16.526,6.8,16.526,6.8S1504.907,861.078,1488.582,875.926Z" transform="translate(-1449.727 -744.556)" fill="#ed7d2b"/>
      <path id="Path_133" data-name="Path 133" d="M1405.332,694.9s-16.759,3.013-25.5,14.176-22.8,26.9-26.125,32.414-12.553,43.021-12.553,43.021.609,1.206,3.154,1.908a5.769,5.769,0,0,0,4.2-.37s12.227-21.89,16.828-32.825c1.912-4.543,34.977-22.536,47.408-20.672C1417.63,733.289,1405.332,694.9,1405.332,694.9Z" transform="translate(-1336.535 -652.753)" fill="#f99746"/>
      <path id="Path_134" data-name="Path 134" d="M1863.541,572.511s3.6,2.307,5.761,1.331,1.966-1.869,1.966-1.869S1864.754,570.082,1863.541,572.511Z" transform="translate(-1737.613 -557.149)" fill="#ffb27d"/>
      <path id="Path_135" data-name="Path 135" d="M1471.911,742.568s-7.355,48.574-59.537,62.716l-5.684,11.732,9.986,1.768s59.408-18,58.608-77.074Z" transform="translate(-1386.852 -688.532)" fill="#bc3f3f"/>
      <path id="Path_136" data-name="Path 136" d="M1674.675,713.329l-2.409.247v3.647l3.549,3.859,3.374-.859v-5.062l-2.425-1.833Z" transform="translate(-1590.757 -664.698)" fill="#a02e2e"/>
      <path id="Path_137" data-name="Path 137" d="M1616.606,673.566s-2.332.55-7.662,5.184c0,0,5.3,11.771,16.486,13.181a40.872,40.872,0,0,1,.628-8.705S1617.193,679.906,1616.606,673.566Z" transform="translate(-1542.139 -634.594)" fill="#ed7d2b"/>
      <path id="Path_138" data-name="Path 138" d="M1682.639,703.242s5.458,3.031,5.862,7.753c0,0,2.086-3.457,1.481-5.852a19.842,19.842,0,0,0-2.475-5.138S1687.692,702.889,1682.639,703.242Z" transform="translate(-1598.72 -654.61)" fill="#ed7d2b"/>
    </g>
  </g>
</svg>
