<svg width="24" height="47" viewBox="0 0 24 47" fill="none" xmlns="http://www.w3.org/2000/svg">
<g filter="url(#filter0_d_2_224)">
<circle cx="11.8008" cy="11.8008" r="10.7187" transform="rotate(-6.12222 11.8008 11.8008)" fill="white"/>
</g>
<g clip-path="url(#clip0_2_224)">
<path d="M16.3214 9.69405L14.0101 9.35819L12.9764 7.2638C12.5773 6.45503 11.4229 6.45473 11.0236 7.26377L9.98991 9.35819L7.67858 9.69405C6.78608 9.82372 6.42911 10.9215 7.07513 11.5513L8.74763 13.1816L8.35282 15.4836C8.20035 16.3724 9.13403 17.0512 9.93271 16.6314L12 15.5445L14.0673 16.6314C14.867 17.0517 15.7993 16.3704 15.6472 15.4836L15.2523 13.1816L16.9249 11.5513C17.5707 10.9218 17.2143 9.8238 16.3214 9.69405Z" fill="#091245"/>
<path d="M8.68405 6.89074L8.12594 6.1226C7.97443 5.91413 7.68259 5.8679 7.47412 6.01941C7.26562 6.17089 7.21941 6.46273 7.3709 6.67123L7.92901 7.43937C8.0806 7.64794 8.37247 7.69402 8.58083 7.54256C8.78932 7.3911 8.83553 7.09924 8.68405 6.89074Z" fill="#091245"/>
<path d="M6.83194 13.7747C6.75228 13.5296 6.48907 13.3954 6.24391 13.4751L5.32256 13.7745C5.07746 13.8541 4.94333 14.1174 5.02296 14.3625C5.10275 14.6081 5.36651 14.7416 5.61099 14.6621L6.53236 14.3627C6.77747 14.2831 6.91159 14.0198 6.83194 13.7747Z" fill="#091245"/>
<path d="M16.5259 6.01942C16.3174 5.8679 16.0256 5.91412 15.8741 6.12261L15.316 6.89075C15.1645 7.09925 15.2107 7.39111 15.4192 7.54257C15.6278 7.69411 15.9196 7.64779 16.071 7.43937L16.6291 6.67123C16.7806 6.46274 16.7344 6.1709 16.5259 6.01942Z" fill="#091245"/>
<path d="M18.6775 13.7745L17.7561 13.4751C17.511 13.3953 17.2477 13.5296 17.1681 13.7747C17.0884 14.0198 17.2225 14.2831 17.4677 14.3627L18.389 14.6621C18.6336 14.7417 18.8973 14.608 18.9771 14.3625C19.0567 14.1174 18.9226 13.8541 18.6775 13.7745Z" fill="#091245"/>
<path d="M12 17.3922C11.7423 17.3922 11.5333 17.6011 11.5333 17.8589V18.806C11.5333 19.0637 11.7423 19.2726 12 19.2726C12.2577 19.2726 12.4666 19.0637 12.4666 18.806V17.8589C12.4666 17.6011 12.2577 17.3922 12 17.3922Z" fill="#091245"/>
</g>
<defs>
<filter id="filter0_d_2_224" x="1.08112" y="1.08112" width="21.4393" height="45.4393" filterUnits="userSpaceOnUse" color-interpolation-filters="sRGB">
<feFlood flood-opacity="0" result="BackgroundImageFix"/>
<feColorMatrix in="SourceAlpha" type="matrix" values="0 0 0 0 0 0 0 0 0 0 0 0 0 0 0 0 0 0 127 0" result="hardAlpha"/>
<feMorphology radius="20" operator="erode" in="SourceAlpha" result="effect1_dropShadow_2_224"/>
<feOffset dy="24"/>
<feGaussianBlur stdDeviation="10"/>
<feComposite in2="hardAlpha" operator="out"/>
<feColorMatrix type="matrix" values="0 0 0 0 0 0 0 0 0 0 0 0 0 0 0 0 0 0 0.25 0"/>
<feBlend mode="normal" in2="BackgroundImageFix" result="effect1_dropShadow_2_224"/>
<feBlend mode="normal" in="SourceGraphic" in2="effect1_dropShadow_2_224" result="shape"/>
</filter>
<clipPath id="clip0_2_224">
<rect width="14" height="14" fill="white" transform="translate(5 5.60144)"/>
</clipPath>
</defs>
</svg>
