<svg width="385" height="165" viewBox="0 0 385 165" fill="none" xmlns="http://www.w3.org/2000/svg">
<circle cx="106" cy="75" r="58" fill="url(#paint0_linear_2_248)"/>
<g filter="url(#filter0_b_2_248)">
<circle cx="216" cy="75" r="58" fill="#77B4FF" fill-opacity="0.08"/>
<circle cx="216" cy="75" r="57.5" stroke="url(#paint1_linear_2_248)"/>
</g>
<path d="M65.4538 162.14C63.2079 162.14 61.7571 160.675 61.7571 158.429V151.984H63.3753V158.875C63.3753 160.159 63.9891 160.689 65.4538 160.689C66.9046 160.689 67.5184 160.159 67.5184 158.875V151.984H69.1366V158.429C69.1366 160.675 67.6858 162.14 65.4538 162.14ZM74.7584 154.537C76.5998 154.537 78.0785 156.239 78.0785 158.331C78.0785 160.438 76.5719 162.14 74.7026 162.14C73.8795 162.14 73.1402 161.777 72.6101 161.135V164.888H71.0337V154.676H72.4985V155.667C73.0146 154.997 73.9074 154.537 74.7584 154.537ZM76.3626 158.931V157.759C76.3626 156.448 75.7907 155.89 74.4794 155.89C73.182 155.89 72.6101 156.448 72.6101 157.759V158.931C72.6101 160.228 73.182 160.8 74.4794 160.8C75.7907 160.8 76.3626 160.228 76.3626 158.931ZM79.5072 162V151.984H81.0836V162H79.5072ZM86.0926 162.14C84.0559 162.14 82.5075 160.493 82.5075 158.331C82.5075 156.169 84.0559 154.537 86.0926 154.537C88.1433 154.537 89.6917 156.169 89.6917 158.331C89.6917 160.493 88.1433 162.14 86.0926 162.14ZM86.0926 160.8C87.4039 160.8 87.9759 160.228 87.9759 158.917V157.745C87.9759 156.448 87.4039 155.89 86.0926 155.89C84.7953 155.89 84.2233 156.448 84.2233 157.745V158.917C84.2233 160.228 84.7953 160.8 86.0926 160.8ZM93.9878 154.537C95.6757 154.537 96.8615 155.625 96.8615 157.215V162H95.4246V161.275C94.9503 161.833 94.2389 162.14 93.36 162.14C91.8813 162.14 90.6956 161.163 90.6956 159.852C90.6956 158.582 91.8534 157.745 93.6251 157.745H95.327V157.104C95.327 156.169 95.034 155.806 93.918 155.806C92.7881 155.806 92.4672 156.155 92.4254 157.145H90.8909C91.0862 155.722 92.3138 154.537 93.9878 154.537ZM93.6809 160.898C94.8387 160.898 95.327 160.535 95.327 159.684V158.917H93.2763C92.6207 158.917 92.3138 159.168 92.3138 159.656V160.047C92.3138 160.633 92.7044 160.898 93.6809 160.898ZM103.642 151.984H105.219V162H103.74V161.01C103.238 161.679 102.331 162.14 101.48 162.14C99.6527 162.14 98.174 160.438 98.174 158.359C98.174 156.239 99.6666 154.537 101.536 154.537C102.359 154.537 103.112 154.885 103.642 155.527V151.984ZM103.642 158.917V157.745C103.642 156.448 103.07 155.89 101.759 155.89C100.462 155.89 99.8898 156.448 99.8898 157.745V158.917C99.8898 160.228 100.462 160.8 101.759 160.8C103.07 160.8 103.642 160.228 103.642 158.917ZM117.864 159.601L119.887 162H118.422L116.902 160.2H116.623C116.325 160.591 116.055 160.907 115.814 161.149C115.572 161.391 115.228 161.619 114.781 161.833C114.335 162.037 113.847 162.14 113.317 162.14C112.47 162.14 111.731 161.87 111.099 161.33C110.475 160.791 110.164 160.084 110.164 159.21C110.164 158.55 110.373 157.996 110.792 157.55C111.21 157.094 111.759 156.741 112.438 156.49C111.722 155.932 111.364 155.239 111.364 154.411C111.364 153.714 111.629 153.114 112.159 152.612C112.698 152.1 113.377 151.844 114.195 151.844C115.005 151.844 115.669 152.1 116.19 152.612C116.711 153.114 116.971 153.714 116.971 154.411C116.971 154.978 116.776 155.509 116.386 156.001C115.995 156.494 115.511 156.862 114.935 157.104L116.609 159.029H116.888L118.241 156.936H119.636L117.864 159.601ZM112.689 154.09V154.816C112.689 155.504 113.065 155.974 113.819 156.225H114.377C114.823 156.094 115.144 155.918 115.339 155.695C115.544 155.471 115.646 155.178 115.646 154.816V154.007C115.646 153.635 115.53 153.365 115.297 153.198C115.065 153.021 114.688 152.932 114.168 152.932C113.182 152.932 112.689 153.318 112.689 154.09ZM113.317 161.051C113.856 161.051 114.302 160.949 114.656 160.744C115.018 160.531 115.363 160.177 115.688 159.684L113.596 157.313H113.038C112.005 157.517 111.489 157.968 111.489 158.666V159.754C111.489 160.619 112.098 161.051 113.317 161.051ZM124.782 162V151.984H127.53L129.566 160.884H130.069L132.105 151.984H134.853V162H133.682V153.1H133.054L130.933 162H128.646L126.553 153.1H125.925V162H124.782ZM137.71 153.853C137.068 153.853 136.608 153.407 136.608 152.779C136.608 152.137 137.068 151.705 137.71 151.705C138.337 151.705 138.798 152.137 138.798 152.779C138.798 153.407 138.337 153.853 137.71 153.853ZM136.928 162V154.676H138.505V162H136.928ZM139.943 162L141.756 158.331L139.943 154.676H141.672L143.026 157.689H143.625L144.992 154.676H146.708L144.867 158.317L146.708 162H144.979L143.625 159.001H143.026L141.658 162H139.943Z" fill="#D1DFFF"/>
<path d="M182.927 151.984C184.88 151.984 186.429 153.449 186.429 155.318C186.429 157.159 184.88 158.624 182.969 158.624H181.156V162H179.537V151.984H182.927ZM184.755 155.736V154.872C184.755 153.909 184.141 153.435 182.899 153.435H181.156V157.173H182.927C184.155 157.173 184.755 156.699 184.755 155.736ZM190.487 154.537C192.175 154.537 193.361 155.625 193.361 157.215V162H191.924V161.275C191.45 161.833 190.738 162.14 189.86 162.14C188.381 162.14 187.195 161.163 187.195 159.852C187.195 158.582 188.353 157.745 190.125 157.745H191.827V157.104C191.827 156.169 191.534 155.806 190.418 155.806C189.288 155.806 188.967 156.155 188.925 157.145H187.39C187.586 155.722 188.813 154.537 190.487 154.537ZM190.18 160.898C191.338 160.898 191.827 160.535 191.827 159.684V158.917H189.776C189.12 158.917 188.813 159.168 188.813 159.656V160.047C188.813 160.633 189.204 160.898 190.18 160.898ZM196.585 156.169C197.129 155.276 198.091 154.676 199.221 154.537V156.434H197.924C197.087 156.434 196.696 156.825 196.696 157.689V162H195.12V154.676H196.585V156.169ZM203.653 162.07C202.202 162.07 201.282 161.205 201.282 159.852V155.988H199.761V154.676H201.282V151.984H202.844V154.676H204.825V155.988H202.844V159.935C202.844 160.41 203.095 160.647 203.569 160.647H204.685V162.07H203.653ZM207.058 153.853C206.417 153.853 205.956 153.407 205.956 152.779C205.956 152.137 206.417 151.705 207.058 151.705C207.686 151.705 208.147 152.137 208.147 152.779C208.147 153.407 207.686 153.853 207.058 153.853ZM206.277 162V154.676H207.854V162H206.277ZM212.751 162.14C210.784 162.14 209.277 160.493 209.277 158.331C209.277 156.183 210.77 154.537 212.751 154.537C214.439 154.537 215.82 155.764 216.099 157.494H214.439C214.355 156.308 213.895 155.89 212.723 155.89C211.509 155.89 210.993 156.448 210.993 157.745V158.917C210.993 160.228 211.509 160.8 212.723 160.8C213.895 160.8 214.355 160.354 214.439 159.168H216.099C215.82 160.912 214.425 162.14 212.751 162.14ZM218.297 153.853C217.656 153.853 217.195 153.407 217.195 152.779C217.195 152.137 217.656 151.705 218.297 151.705C218.925 151.705 219.386 152.137 219.386 152.779C219.386 153.407 218.925 153.853 218.297 153.853ZM217.516 162V154.676H219.093V162H217.516ZM224.687 154.537C226.529 154.537 228.008 156.239 228.008 158.331C228.008 160.438 226.501 162.14 224.632 162.14C223.809 162.14 223.069 161.777 222.539 161.135V164.888H220.963V154.676H222.428V155.667C222.944 154.997 223.837 154.537 224.687 154.537ZM226.292 158.931V157.759C226.292 156.448 225.72 155.89 224.408 155.89C223.111 155.89 222.539 156.448 222.539 157.759V158.931C222.539 160.228 223.111 160.8 224.408 160.8C225.72 160.8 226.292 160.228 226.292 158.931ZM232.31 154.537C233.998 154.537 235.184 155.625 235.184 157.215V162H233.747V161.275C233.273 161.833 232.561 162.14 231.682 162.14C230.204 162.14 229.018 161.163 229.018 159.852C229.018 158.582 230.176 157.745 231.947 157.745H233.649V157.104C233.649 156.169 233.356 155.806 232.24 155.806C231.11 155.806 230.79 156.155 230.748 157.145H229.213C229.408 155.722 230.636 154.537 232.31 154.537ZM232.003 160.898C233.161 160.898 233.649 160.535 233.649 159.684V158.917H231.599C230.943 158.917 230.636 159.168 230.636 159.656V160.047C230.636 160.633 231.027 160.898 232.003 160.898ZM239.945 162.07C238.494 162.07 237.573 161.205 237.573 159.852V155.988H236.053V154.676H237.573V151.984H239.136V154.676H241.117V155.988H239.136V159.935C239.136 160.41 239.387 160.647 239.861 160.647H240.977V162.07H239.945ZM249.002 158.778H243.742V159.126C243.742 160.34 244.3 160.842 245.598 160.842C246.714 160.842 247.202 160.507 247.286 159.684H248.974C248.527 161.079 247.118 162.14 245.612 162.14C243.589 162.14 242.054 160.633 242.054 158.443C242.054 156.294 243.561 154.537 245.626 154.537C247.523 154.537 249.002 156.155 249.002 158.192V158.778ZM245.626 155.806C244.328 155.806 243.742 156.294 243.742 157.438V157.606H247.3V157.438C247.3 156.28 246.839 155.806 245.626 155.806Z" fill="#D1DFFF"/>
<g filter="url(#filter1_bd_2_248)">
<circle cx="323" cy="75" r="58" fill="#152764" fill-opacity="0.28" shape-rendering="crispEdges"/>
<circle cx="323" cy="75" r="57.5" stroke="url(#paint2_linear_2_248)" shape-rendering="crispEdges"/>
</g>
<path d="M314.545 162L313.122 151.984H314.726L315.856 160.549H316.553L317.781 151.984H320.641L321.854 160.549H322.552L323.682 151.984H325.244L323.807 162H320.529L319.427 153.435H318.953L317.823 162H314.545ZM327.588 153.853C326.946 153.853 326.486 153.407 326.486 152.779C326.486 152.137 326.946 151.705 327.588 151.705C328.215 151.705 328.676 152.137 328.676 152.779C328.676 153.407 328.215 153.853 327.588 153.853ZM326.807 162V154.676H328.383V162H326.807ZM334.075 154.537C335.568 154.537 336.684 155.75 336.684 157.424V162H335.108V157.341C335.108 156.35 334.62 155.904 333.504 155.904C332.332 155.904 331.83 156.364 331.83 157.41V162H330.253V154.676H331.718V155.736C332.276 154.969 333.113 154.537 334.075 154.537Z" fill="#D1DFFF"/>
<g filter="url(#filter2_d_2_248)">
<rect x="0.528076" y="97.0576" width="112.055" height="29.5667" rx="14.7833" transform="rotate(-60.0153 0.528076 97.0576)" fill="url(#paint3_linear_2_248)"/>
</g>
<path d="M30.4728 74.814C31.3122 74.2177 32.2576 74.0878 32.9783 74.5036C34.3858 75.3157 34.678 77.1503 33.6905 78.8618L31.8258 82.0935L23.7411 77.4286L25.5018 74.3771C26.4893 72.6656 28.1013 72.0048 29.4188 72.765C30.0831 73.1483 30.4685 73.911 30.4728 74.814ZM26.96 75.0234L26.0569 76.5886L27.9598 77.6865L28.8629 76.1214C29.2722 75.412 29.2341 74.8797 28.75 74.6004L28.3896 74.3925C27.8717 74.0936 27.3693 74.314 26.96 75.0234ZM32.1808 76.2498L31.8205 76.0419C31.3138 75.7495 30.7629 76.002 30.3016 76.8014L29.3336 78.4792L31.3942 79.6681L32.3622 77.9904C32.817 77.2022 32.7438 76.5746 32.1808 76.2498ZM36.6188 67.882L34.2409 72.0032L34.5561 72.1851C35.3443 72.6399 35.874 72.4502 36.3808 71.572C36.8746 70.7162 36.8603 70.2727 36.3073 69.8786L37.2363 68.2684C38.1852 69.2511 38.4233 70.9194 37.6436 72.2706C36.6886 73.9258 34.7076 74.5238 32.906 73.4843C31.2282 72.5163 30.4791 70.433 31.4861 68.6877C32.3957 67.1113 34.4681 66.6411 36.0895 67.5767L36.6188 67.882ZM32.6667 69.3989C32.1534 70.2885 32.2591 70.8597 33.0248 71.3015L33.1711 71.386L34.5745 68.9538L34.4619 68.8888C33.6512 68.4211 33.154 68.5544 32.6667 69.3989ZM42.8637 63.0935C42.1231 64.3772 40.9364 64.7431 39.7428 64.0544L37.0066 62.4756L36.3439 63.6242L35.004 62.851L35.6667 61.7025L33.5272 60.4681L34.4433 58.8804L36.5827 60.1148L37.4403 58.6285L38.7803 59.4016L37.9227 60.888L40.6701 62.4732C40.9854 62.6552 41.2405 62.5772 41.4159 62.2732L41.9357 61.3724L43.377 62.204L42.8637 63.0935ZM39.8224 54.24C40.5046 53.0577 42.0377 52.7416 43.3439 53.4953L47.0822 55.6523L46.1662 57.24L42.4278 55.083C41.786 54.7126 41.2983 54.8815 40.8435 55.6697C40.3693 56.4917 40.4766 57.0339 41.1522 57.4238L44.8343 59.5483L43.9117 61.1472L35.827 56.4824L36.7496 54.8834L39.5871 56.5207C39.329 55.7714 39.4066 54.9607 39.8224 54.24ZM48.3123 47.6157L45.9344 51.7369L46.2497 51.9188C47.0379 52.3736 47.5676 52.1839 48.0744 51.3056C48.5681 50.4498 48.5539 50.0064 48.0008 49.6122L48.9299 48.002C49.8788 48.9848 50.1169 50.653 49.3372 52.0043C48.3822 53.6595 46.4012 54.2575 44.5996 53.218C42.9218 52.2499 42.1727 50.1667 43.1797 48.4214C44.0893 46.845 46.1617 46.3747 47.7831 47.3103L48.3123 47.6157ZM44.3603 49.1326C43.847 50.0221 43.9527 50.5934 44.7183 51.0352L44.8647 51.1196L46.2681 48.6875L46.1555 48.6225C45.3447 48.1547 44.8476 48.2881 44.3603 49.1326ZM53.0002 45.3958L44.9155 40.7309L46.8386 37.398L54.392 39.55L54.6454 39.1108L48.047 35.3036L48.9241 33.7835L57.0088 38.4483L55.1637 41.6462L47.5907 39.5279L47.2789 40.0684L53.8773 43.8757L53.0002 45.3958ZM59.4026 34.5597C58.4021 36.2937 56.3263 36.822 54.5584 35.802C52.8019 34.7884 52.2316 32.7334 53.2321 30.9993C54.2392 29.254 56.3037 28.7193 58.0603 29.7328C59.8281 30.7528 60.4032 32.8256 59.4026 34.5597ZM58.074 33.793C58.6002 32.881 58.4465 32.237 57.5907 31.7432L56.5773 31.1585C55.7216 30.6647 55.0983 30.8604 54.5721 31.7725C54.0588 32.662 54.206 33.3173 55.0505 33.8046L56.0639 34.3893C56.9197 34.8831 57.5607 34.6826 58.074 33.793ZM62.2193 29.6001C61.8489 30.2419 61.1452 30.4212 60.5146 30.0574C59.8728 29.687 59.6758 28.988 60.0461 28.3462C60.4099 27.7156 61.1137 27.5364 61.7555 27.9067C62.3861 28.2705 62.5831 28.9695 62.2193 29.6001ZM63.5532 27.1061L62.0894 26.2615L63.3369 24.0996L58.1797 21.1239L57.0818 23.0269L55.6179 22.1823L57.6385 18.6804L64.2594 22.5006L65.5069 20.3387L66.9707 21.1833L63.5532 27.1061Z" fill="#103E77"/>
<g clip-path="url(#clip0_2_248)">
<path d="M22.205 84.366L20.7584 86.1997L18.4278 86.0477C17.5278 85.9889 16.9503 86.9886 17.4514 87.7389L18.7483 89.6813L17.8835 91.8509C17.5496 92.6887 18.3218 93.5467 19.1903 93.3021L21.4384 92.6689L23.2345 94.1618C23.928 94.7382 24.9828 94.269 25.0186 93.3675L25.1109 91.0337L27.0859 89.7868C27.8497 89.3044 27.7258 88.1563 26.8817 87.8447L24.6907 87.0356L24.1151 84.772C23.8928 83.898 22.7638 83.6576 22.205 84.366Z" fill="#103E77"/>
<path d="M15.9586 89.5784L15.0143 89.6777C14.758 89.7047 14.572 89.9343 14.599 90.1906C14.626 90.4469 14.8556 90.6328 15.1119 90.6059L16.0562 90.5066C16.3126 90.4796 16.4984 90.2499 16.4715 89.9937C16.4445 89.7374 16.2149 89.5515 15.9586 89.5784Z" fill="#103E77"/>
<path d="M20.9942 94.6244C20.7422 94.5708 20.4943 94.7316 20.4408 94.9838L20.2394 95.9314C20.1857 96.1835 20.3467 96.4313 20.5988 96.4849C20.8514 96.5386 21.0989 96.3769 21.1523 96.1254L21.3537 95.1778C21.4073 94.9257 21.2464 94.6779 20.9942 94.6244Z" fill="#103E77"/>
<path d="M19.1249 82.3515C18.8895 82.4563 18.7836 82.7322 18.8884 82.9676L19.2745 83.835C19.3794 84.0705 19.6552 84.1764 19.8906 84.0716C20.1262 83.9667 20.232 83.6908 20.1272 83.4555L19.741 82.5881C19.6362 82.3526 19.3604 82.2467 19.1249 82.3515Z" fill="#103E77"/>
<path d="M26.9167 84.3657L26.1968 85.014C26.0051 85.1864 25.9898 85.4815 26.1622 85.673C26.3347 85.8646 26.6297 85.8801 26.8213 85.7076L27.5412 85.0593C27.7325 84.8873 27.7485 84.5921 27.5758 84.4003C27.4033 84.2088 27.1083 84.1933 26.9167 84.3657Z" fill="#103E77"/>
<path d="M26.7111 91.9574C26.5822 92.1806 26.6587 92.466 26.8819 92.5949L27.7022 93.0685C27.9253 93.1973 28.2107 93.1208 28.3396 92.8977C28.4685 92.6745 28.392 92.3891 28.1688 92.2602L27.3486 91.7866C27.1254 91.6578 26.84 91.7342 26.7111 91.9574Z" fill="#103E77"/>
</g>
<path opacity="0.4" d="M82.5565 67.9431C82.3532 67.9431 82.1244 67.9178 81.9211 67.8415C80.9299 67.4857 80.4215 66.3927 80.752 65.4015C82.4549 60.6231 85.4032 56.4295 89.3428 53.2524C90.1562 52.5915 91.3507 52.7186 92.0115 53.5319C92.6724 54.3453 92.5453 55.5398 91.732 56.2261C88.3516 58.9457 85.8099 62.5548 84.3612 66.6723C84.0816 67.4602 83.3444 67.9431 82.5565 67.9431Z" fill="url(#paint4_linear_2_248)"/>
<path opacity="0.4" d="M82.5575 84.87C81.7695 84.87 81.0325 84.3871 80.7529 83.5992C79.7108 80.6254 79.1771 77.5754 79.1771 74.5C79.1771 73.4579 80.0412 72.5938 81.0833 72.5938C82.1254 72.5938 82.9896 73.4579 82.9896 74.5C82.9896 77.1433 83.4471 79.7867 84.3621 82.3283C84.7179 83.3196 84.1841 84.4125 83.1929 84.7683C82.9895 84.8446 82.7608 84.87 82.5575 84.87Z" fill="url(#paint5_linear_2_248)"/>
<path opacity="0.4" d="M106.502 101.823C103.807 101.823 101.139 101.416 98.5461 100.629C97.5294 100.324 96.9703 99.256 97.2753 98.2394C97.5803 97.2227 98.6478 96.6635 99.6645 96.9685C101.876 97.6548 104.189 97.9849 106.502 97.9849C119.464 97.9849 130.012 87.437 130.012 74.4745C130.012 73.1529 129.885 71.7804 129.631 70.3316C129.453 69.2896 130.139 68.2984 131.181 68.1205C132.198 67.9425 133.214 68.6288 133.392 69.6708C133.697 71.3483 133.85 72.9244 133.85 74.5002C133.824 89.5723 121.574 101.823 106.502 101.823Z" fill="url(#paint6_linear_2_248)"/>
<path opacity="0.4" d="M90.5389 96.1044C90.1068 96.1044 89.7001 95.9773 89.3443 95.6723C87.8956 94.5032 86.7264 93.3846 85.7351 92.2408C85.0489 91.4529 85.1506 90.2329 85.9385 89.5467C86.7518 88.8604 87.9464 88.9623 88.6326 89.7502C89.4714 90.7161 90.4881 91.6817 91.7335 92.6983C92.5468 93.3592 92.6739 94.554 92.013 95.3673C91.6572 95.8503 91.0981 96.1044 90.5389 96.1044Z" fill="url(#paint7_linear_2_248)"/>
<path opacity="0.4" d="M127.444 62.0205C126.834 62.0205 126.25 61.7409 125.868 61.1817C121.471 54.7767 114.228 50.9642 106.501 50.9642C104.188 50.9642 101.875 51.2946 99.6639 51.9809C98.6727 52.2859 97.6052 51.7267 97.2747 50.71C96.9443 49.6934 97.5289 48.6259 98.5456 48.3209C101.138 47.533 103.807 47.1262 106.501 47.1262C115.498 47.1262 123.911 51.5742 129.02 58.9959C129.605 59.8601 129.401 61.0546 128.537 61.6392C128.207 61.9188 127.826 62.0205 127.444 62.0205Z" fill="url(#paint8_linear_2_248)"/>
<path d="M116.743 60.5207C115.904 59.8853 114.379 59.2499 111.939 59.9107L103.831 62.0966C101.493 62.7574 99.9679 64.7399 99.9679 67.1799V71.3483V77.9058C99.3071 77.6517 98.5954 77.4992 97.8329 77.4992C94.5542 77.4992 91.8854 80.1679 91.8854 83.4467C91.8854 86.7254 94.5542 89.3942 97.8329 89.3942C101.086 89.3942 103.704 86.7762 103.755 83.5483C103.755 83.5229 103.78 83.4975 103.78 83.4467V72.7971L114.76 69.7979V75.2117C114.1 74.9575 113.388 74.805 112.625 74.805C109.347 74.805 106.678 77.4737 106.678 80.7525C106.678 84.0312 109.347 86.7 112.625 86.7C115.904 86.7 118.573 84.0312 118.573 80.7525V67.3069V64.9686C118.573 62.9353 117.963 61.4357 116.743 60.5207ZM97.8329 85.5817C96.6638 85.5817 95.6979 84.6158 95.6979 83.4467C95.6979 82.2775 96.6638 81.3117 97.8329 81.3117C99.0021 81.3117 99.9679 82.2775 99.9679 83.4467C99.9679 84.6158 99.0021 85.5817 97.8329 85.5817ZM112.625 82.8875C111.456 82.8875 110.49 81.9217 110.49 80.7525C110.49 79.5833 111.456 78.6175 112.625 78.6175C113.795 78.6175 114.76 79.5833 114.76 80.7525C114.76 81.9217 113.795 82.8875 112.625 82.8875Z" fill="url(#paint9_linear_2_248)"/>
<g clip-path="url(#clip1_2_248)">
<path d="M126 102.333C130.6 102.333 134.333 98.6 134.333 94C134.333 89.4 130.6 85.6667 126 85.6667C121.4 85.6667 117.667 89.4 117.667 94C117.667 98.6 121.4 102.333 126 102.333ZM123.058 93.1417L125.558 90.6417C125.683 90.5167 125.842 90.4584 126 90.4584C126.158 90.4584 126.317 90.5167 126.442 90.6417L128.942 93.1417C129.183 93.3834 129.183 93.7834 128.942 94.025C128.7 94.2667 128.3 94.2667 128.058 94.025L126.625 92.5917L126.625 96.9167C126.625 97.2584 126.342 97.5417 126 97.5417C125.658 97.5417 125.375 97.2584 125.375 96.9167L125.375 92.5917L123.942 94.025C123.7 94.2667 123.3 94.2667 123.058 94.025C122.817 93.7834 122.817 93.3834 123.058 93.1417Z" fill="url(#paint10_linear_2_248)"/>
</g>
<path d="M311.479 82C311.699 81.02 311.299 79.62 310.599 78.92L305.739 74.06C304.219 72.54 303.619 70.92 304.059 69.52C304.519 68.12 305.939 67.16 308.059 66.8L314.299 65.76C315.199 65.6 316.299 64.8 316.719 63.98L320.159 57.08C321.159 55.1 322.519 54 323.999 54C325.479 54 326.839 55.1 327.839 57.08L331.279 63.98C331.539 64.5 332.079 65 332.659 65.34L311.119 86.88C310.839 87.16 310.359 86.9 310.439 86.5L311.479 82Z" fill="url(#paint11_linear_2_248)"/>
<path d="M337.402 78.9198C336.682 79.6398 336.282 81.0198 336.522 81.9998L337.902 88.0198C338.482 90.5198 338.122 92.3998 336.882 93.2998C336.382 93.6598 335.782 93.8398 335.082 93.8398C334.062 93.8398 332.862 93.4598 331.542 92.6798L325.682 89.1998C324.762 88.6598 323.242 88.6598 322.322 89.1998L316.462 92.6798C314.242 93.9798 312.342 94.1998 311.122 93.2998C310.662 92.9598 310.322 92.4998 310.102 91.8998L334.422 67.5798C335.342 66.6598 336.642 66.2398 337.902 66.4598L339.922 66.7998C342.042 67.1598 343.462 68.1198 343.922 69.5198C344.362 70.9198 343.762 72.5398 342.242 74.0598L337.402 78.9198Z" fill="url(#paint12_linear_2_248)"/>
<path fill-rule="evenodd" clip-rule="evenodd" d="M232.359 72.04C231.439 72.96 230.279 73.78 228.959 74.28C226.879 79.4 221.879 83 215.999 83C210.119 83 205.119 79.4 203.039 74.28C201.719 73.78 200.559 72.96 199.639 72.04C197.779 69.98 196.559 67.52 196.559 64.64C196.559 61.76 198.819 59.5 201.699 59.5H202.819C204.119 56.84 206.839 55 209.999 55H221.999C225.159 55 227.879 56.84 229.179 59.5H230.299C233.179 59.5 235.439 61.76 235.439 64.64C235.439 67.52 234.219 69.98 232.359 72.04ZM220.439 69.42L221.679 67.9C222.459 66.98 222.119 65.96 220.959 65.66L219.059 65.18C218.759 65.1 218.399 64.82 218.239 64.56L217.179 62.92C216.519 61.9 215.479 61.9 214.819 62.92L213.759 64.56C213.599 64.82 213.239 65.1 212.939 65.18L211.039 65.66C209.879 65.96 209.539 66.98 210.319 67.9L211.559 69.42C211.759 69.64 211.899 70.08 211.879 70.38L211.759 72.34C211.679 73.54 212.539 74.16 213.659 73.72L215.479 73C215.759 72.9 216.239 72.9 216.519 73L218.339 73.72C219.459 74.16 220.319 73.54 220.239 72.34L220.119 70.38C220.099 70.08 220.239 69.64 220.439 69.42ZM210 87.5018H214.5V82.9218C215 82.9818 215.5 83.0018 216 83.0018C216.5 83.0018 217 82.9818 217.5 82.9218V87.5018H222C224.2 87.5018 226 89.3018 226 91.5018V92.0018H228C228.82 92.0018 229.5 92.6818 229.5 93.5018C229.5 94.3218 228.82 95.0018 228 95.0018H204C203.18 95.0018 202.5 94.3218 202.5 93.5018C202.5 92.6818 203.18 92.0018 204 92.0018H206V91.5018C206 89.3018 207.8 87.5018 210 87.5018Z" fill="url(#paint13_linear_2_248)"/>
<defs>
<filter id="filter0_b_2_248" x="124" y="-17" width="184" height="184" filterUnits="userSpaceOnUse" color-interpolation-filters="sRGB">
<feFlood flood-opacity="0" result="BackgroundImageFix"/>
<feGaussianBlur in="BackgroundImageFix" stdDeviation="17"/>
<feComposite in2="SourceAlpha" operator="in" result="effect1_backgroundBlur_2_248"/>
<feBlend mode="normal" in="SourceGraphic" in2="effect1_backgroundBlur_2_248" result="shape"/>
</filter>
<filter id="filter1_bd_2_248" x="241" y="5" width="151" height="144" filterUnits="userSpaceOnUse" color-interpolation-filters="sRGB">
<feFlood flood-opacity="0" result="BackgroundImageFix"/>
<feGaussianBlur in="BackgroundImageFix" stdDeviation="5.5"/>
<feComposite in2="SourceAlpha" operator="in" result="effect1_backgroundBlur_2_248"/>
<feColorMatrix in="SourceAlpha" type="matrix" values="0 0 0 0 0 0 0 0 0 0 0 0 0 0 0 0 0 0 127 0" result="hardAlpha"/>
<feOffset dx="-10" dy="2"/>
<feGaussianBlur stdDeviation="7"/>
<feComposite in2="hardAlpha" operator="out"/>
<feColorMatrix type="matrix" values="0 0 0 0 0 0 0 0 0 0 0 0 0 0 0 0 0 0 0.13 0"/>
<feBlend mode="normal" in2="effect1_backgroundBlur_2_248" result="effect2_dropShadow_2_248"/>
<feBlend mode="normal" in="SourceGraphic" in2="effect2_dropShadow_2_248" result="shape"/>
</filter>
<filter id="filter2_d_2_248" x="5.93524" y="5.40723" width="70.7968" height="125.02" filterUnits="userSpaceOnUse" color-interpolation-filters="sRGB">
<feFlood flood-opacity="0" result="BackgroundImageFix"/>
<feColorMatrix in="SourceAlpha" type="matrix" values="0 0 0 0 0 0 0 0 0 0 0 0 0 0 0 0 0 0 127 0" result="hardAlpha"/>
<feMorphology radius="20" operator="erode" in="SourceAlpha" result="effect1_dropShadow_2_248"/>
<feOffset dy="24"/>
<feGaussianBlur stdDeviation="10"/>
<feComposite in2="hardAlpha" operator="out"/>
<feColorMatrix type="matrix" values="0 0 0 0 0 0 0 0 0 0 0 0 0 0 0 0 0 0 0.25 0"/>
<feBlend mode="normal" in2="BackgroundImageFix" result="effect1_dropShadow_2_248"/>
<feBlend mode="normal" in="SourceGraphic" in2="effect1_dropShadow_2_248" result="shape"/>
</filter>
<linearGradient id="paint0_linear_2_248" x1="106" y1="17" x2="118.5" y2="165" gradientUnits="userSpaceOnUse">
<stop stop-color="#206AC6"/>
<stop offset="1" stop-color="#206AC6" stop-opacity="0"/>
</linearGradient>
<linearGradient id="paint1_linear_2_248" x1="297" y1="55" x2="216" y2="133" gradientUnits="userSpaceOnUse">
<stop stop-color="white" stop-opacity="0.33"/>
<stop offset="1" stop-color="#0F1849" stop-opacity="0"/>
</linearGradient>
<linearGradient id="paint2_linear_2_248" x1="381" y1="55" x2="200.5" y2="82" gradientUnits="userSpaceOnUse">
<stop stop-color="white" stop-opacity="0.33"/>
<stop offset="1" stop-color="#0F1849" stop-opacity="0"/>
</linearGradient>
<linearGradient id="paint3_linear_2_248" x1="49.8201" y1="100.333" x2="102.158" y2="219.295" gradientUnits="userSpaceOnUse">
<stop stop-color="white"/>
<stop offset="1" stop-color="#4175FF"/>
</linearGradient>
<linearGradient id="paint4_linear_2_248" x1="86.5432" y1="52.8289" x2="86.5432" y2="67.9431" gradientUnits="userSpaceOnUse">
<stop stop-color="white"/>
<stop offset="1" stop-color="#529FFF"/>
</linearGradient>
<linearGradient id="paint5_linear_2_248" x1="81.8248" y1="72.5938" x2="81.8248" y2="84.87" gradientUnits="userSpaceOnUse">
<stop stop-color="white"/>
<stop offset="1" stop-color="#529FFF"/>
</linearGradient>
<linearGradient id="paint6_linear_2_248" x1="115.521" y1="68.0924" x2="115.521" y2="101.823" gradientUnits="userSpaceOnUse">
<stop stop-color="white"/>
<stop offset="1" stop-color="#529FFF"/>
</linearGradient>
<linearGradient id="paint7_linear_2_248" x1="88.8573" y1="89.0897" x2="88.8573" y2="96.1044" gradientUnits="userSpaceOnUse">
<stop stop-color="white"/>
<stop offset="1" stop-color="#529FFF"/>
</linearGradient>
<linearGradient id="paint8_linear_2_248" x1="113.267" y1="47.1262" x2="113.267" y2="62.0205" gradientUnits="userSpaceOnUse">
<stop stop-color="white"/>
<stop offset="1" stop-color="#529FFF"/>
</linearGradient>
<linearGradient id="paint9_linear_2_248" x1="105.229" y1="59.631" x2="105.229" y2="89.3942" gradientUnits="userSpaceOnUse">
<stop stop-color="white"/>
<stop offset="1" stop-color="#529FFF"/>
</linearGradient>
<linearGradient id="paint10_linear_2_248" x1="126" y1="102.333" x2="121.5" y2="83" gradientUnits="userSpaceOnUse">
<stop stop-color="white"/>
<stop offset="1" stop-color="#529FFF"/>
</linearGradient>
<linearGradient id="paint11_linear_2_248" x1="318.288" y1="54" x2="318.288" y2="86.9971" gradientUnits="userSpaceOnUse">
<stop stop-color="white"/>
<stop offset="1" stop-color="#529FFF"/>
</linearGradient>
<linearGradient id="paint12_linear_2_248" x1="327.082" y1="66.4023" x2="327.082" y2="93.8448" gradientUnits="userSpaceOnUse">
<stop stop-color="white"/>
<stop offset="1" stop-color="#529FFF"/>
</linearGradient>
<linearGradient id="paint13_linear_2_248" x1="215.999" y1="55" x2="215.999" y2="83" gradientUnits="userSpaceOnUse">
<stop stop-color="white"/>
<stop offset="1" stop-color="#529FFF"/>
</linearGradient>
<clipPath id="clip0_2_248">
<rect width="14" height="14" fill="white" transform="translate(13 92.1243) rotate(-60)"/>
</clipPath>
<clipPath id="clip1_2_248">
<rect width="20" height="20" fill="white" transform="translate(137 103) rotate(180)"/>
</clipPath>
</defs>
</svg>
