<svg width="159" height="158" viewBox="0 0 159 158" fill="none" xmlns="http://www.w3.org/2000/svg">
<path d="M73.125 85.875L86.875 72.125M86.875 72.125H75.625M86.875 72.125V83.375" stroke="#B2B8DE" stroke-width="1.5" stroke-linecap="round" stroke-linejoin="round"/>
<path d="M76.8414 17.1476C75.5823 17.1476 74.5297 16.6262 73.6838 15.5835C72.8477 14.531 72.4296 13.2375 72.4296 11.7029C72.4296 10.1684 72.8477 8.87982 73.6838 7.83714C74.5297 6.78461 75.5823 6.25835 76.8414 6.25835C77.9135 6.25835 78.853 6.65673 79.6596 7.45351C80.4662 8.25028 80.9531 9.25854 81.1203 10.4783H79.571C79.5514 9.49462 79.2956 8.74703 78.8038 8.23552C78.3218 7.71418 77.6676 7.45351 76.8414 7.45351C75.897 7.45351 75.174 7.73877 74.6724 8.3093C74.1805 8.87982 73.9346 9.72086 73.9346 10.8324V12.5883C73.9346 13.6998 74.1805 14.5408 74.6724 15.1114C75.174 15.672 75.897 15.9524 76.8414 15.9524C77.6676 15.9524 78.3218 15.6966 78.8038 15.1851C79.2956 14.6638 79.5514 13.9113 79.571 12.9276H81.1203C80.9531 14.1474 80.4662 15.1556 79.6596 15.9524C78.853 16.7492 77.9135 17.1476 76.8414 17.1476Z" fill="#B2B8DE"/>
<path d="M102.518 21.1447L107.442 11.7641L108.617 12.3812L106.512 16.3921L110.798 18.6412L112.903 14.6303L114.079 15.2474L109.155 24.628L107.979 24.0109L110.249 19.6864L105.964 17.4373L103.694 21.7618L102.518 21.1447Z" fill="#B2B8DE"/>
<path d="M130.481 43.9475L132.645 41.3423L130.365 38.0393L127.17 39.151L126.399 38.0338L136.903 34.6022L138.244 36.5451L131.286 45.1133L130.481 43.9475ZM131.529 37.6481L133.432 40.4046L136.736 36.4385L136.401 35.9527L131.529 37.6481Z" fill="#B2B8DE"/>
<path d="M140.122 65.2114L150.639 63.9344L150.963 66.6002L142.041 71.221L142.105 71.7483L151.45 70.6136L151.598 71.8294L141.081 73.1064L140.772 70.5577L149.693 65.9369L149.613 65.2778L140.268 66.4125L140.122 65.2114Z" fill="#B2B8DE"/>
<path d="M138.06 98.6008C138.507 97.4236 139.367 96.6243 140.642 96.2031C141.923 95.7945 143.281 95.8623 144.715 96.4065C146.15 96.9506 147.207 97.7984 147.885 98.95C148.569 100.114 148.688 101.285 148.242 102.462C147.862 103.465 147.156 104.202 146.125 104.673C145.094 105.145 143.978 105.243 142.779 104.967L143.328 103.518C144.255 103.848 145.044 103.874 145.697 103.596C146.356 103.33 146.831 102.811 147.124 102.038C147.459 101.155 147.449 100.378 147.093 99.7069C146.734 99.0447 146.035 98.5165 144.996 98.1224L143.354 97.4997C142.315 97.1056 141.441 97.0373 140.733 97.2948C140.031 97.5651 139.512 98.1417 139.178 99.0246C138.885 99.7972 138.892 100.5 139.199 101.132C139.512 101.776 140.125 102.282 141.038 102.65L140.489 104.098C139.407 103.509 138.637 102.696 138.178 101.66C137.719 100.623 137.68 99.6033 138.06 98.6008Z" fill="#B2B8DE"/>
<path d="M125.218 121.192L132.243 129.122L127.781 133.075L126.998 132.191L130.466 129.119L128.245 126.612L125.108 129.39L124.326 128.507L127.462 125.728L125.006 122.956L121.461 126.097L120.678 125.213L125.218 121.192Z" fill="#B2B8DE"/>
<path d="M68.5739 140.207L66.3281 149.318L69.3223 150.056L69.0328 151.231L61.755 149.437L62.0446 148.263L65.0388 149.001L67.2845 139.889L68.5739 140.207Z" fill="#B2B8DE"/>
<path d="M36.461 125.762C37.8363 125.574 39.0136 125.914 39.9929 126.782C40.9722 127.649 41.4515 128.777 41.4309 130.165C41.4104 131.553 40.8945 132.817 39.8835 133.959C38.8724 135.1 37.6792 135.764 36.3039 135.952C34.9286 136.14 33.7513 135.8 32.772 134.932C31.7928 134.065 31.3134 132.937 31.334 131.549C31.3546 130.161 31.8704 128.897 32.8814 127.755C33.8925 126.614 35.0857 125.95 36.461 125.762ZM40.3277 129.897C40.2977 129.056 39.9219 128.315 39.2004 127.676C38.4788 127.037 37.7023 126.756 36.8708 126.835C36.0255 126.914 35.2669 127.332 34.595 128.091L33.4307 129.405C32.7457 130.178 32.4183 130.985 32.4483 131.827C32.4709 132.661 32.843 133.398 33.5646 134.038C34.2861 134.677 35.0663 134.961 35.9051 134.889C36.7366 134.811 37.4948 134.385 38.1797 133.612L39.344 132.298C40.0159 131.54 40.3438 130.739 40.3277 129.897Z" fill="#B2B8DE"/>
<path d="M17.1713 76.6158L6.45701 76.9647L6.6153 75.6611L16.1293 75.4043L16.2182 74.6719L7.0457 72.1164L7.34094 69.6849L16.8585 69.3988L16.9474 68.6665L7.76956 66.1549L7.92251 64.8952L18.242 67.7981L17.8969 70.6397L8.39535 70.7939L8.33132 71.3213L17.5145 73.7889L17.1713 76.6158Z" fill="#B2B8DE"/>
<path d="M24.6974 49.0183L15.9786 43.0002L16.733 41.9073L25.4517 47.9254L24.6974 49.0183Z" fill="#B2B8DE"/>
<path d="M44.8904 27.0594L39.9671 17.6788L42.3449 16.4309L49.8291 23.1343L50.2995 22.8875L45.9247 14.552L47.0091 13.9829L51.9324 23.3635L49.6591 24.5566L42.1749 17.8532L41.587 18.1618L45.9618 26.4972L44.8904 27.0594Z" fill="#B2B8DE"/>
<circle cx="100.396" cy="143.253" r="2.77776" fill="#B2B8DE"/>
<circle cx="14.6825" cy="107.539" r="2.77776" fill="#B2B8DE"/>
</svg>
